<svg width="145" height="68" viewBox="0 0 145 68" fill="none" xmlns="http://www.w3.org/2000/svg">
<path d="M2.66113 24.8823C24.1611 -1.61776 79.7611 -7.40215 106.161 16.5978C118.785 28.0745 126.958 38.1791 132.069 46.2556C137.645 55.0687 139.574 61.4669 139.661 64.5977M139.661 64.5977C134.661 61.0977 130.161 54.3822 122.661 52.3822M139.661 64.5977C142.661 60.0977 143.161 47.8822 143.661 42.8822" stroke="black" stroke-width="2" stroke-linecap="round" stroke-linejoin="round"/>
<path d="M1.66116 22.8825C22.3954 -4.22089 80.6611 -2.1178 104.678 16.6618C118.118 27.1713 126.083 37.6402 131.422 45.5675C137.247 54.2177 139.359 60.5582 139.535 63.6852M139.535 63.6852C134.437 60.3295 129.747 53.7453 122.193 51.9603M139.535 63.6852C142.405 59.1014 142.556 46.8765 142.913 41.8643" stroke="black" stroke-width="2" stroke-linecap="round" stroke-linejoin="round"/>
</svg>
