<svg width="24" height="22" viewBox="0 0 24 22" fill="none" xmlns="http://www.w3.org/2000/svg">
<path d="M21.3356 0.00390625C21.6812 0.00390625 22.0228 0.0745953 22.3684 0.278808C23.091 0.687234 23.5034 1.40591 23.5387 2.19134V2.29345C23.5387 2.63511 23.4366 2.97677 23.2638 3.28309L13.8111 20.653C13.8257 20.6383 13.6701 20.9471 13.4077 21.2275C12.996 21.6894 12.398 21.9607 11.7808 21.9607H11.714C11.6225 21.9607 11.531 21.9546 11.44 21.9426L11.4273 21.9411L11.419 21.9397C11.0442 21.8865 10.68 21.7324 10.3699 21.4869C10.1998 21.3536 10.0486 21.1947 9.92349 21.0131C9.87569 20.9449 9.83099 20.8733 9.78975 20.7983L9.75441 20.7315L9.73718 20.6927L0.274174 3.28309C-0.310974 2.22276 0.066034 0.856102 1.16171 0.278808C1.5073 0.106013 1.84897 0.00390625 2.19456 0.00390625H21.3356Z" fill="#160042"/>
</svg>
