<svg width="29" height="27" viewBox="0 0 29 27" fill="none" xmlns="http://www.w3.org/2000/svg">
<g clip-path="url(#clip0_583_12527)">
<path fill-rule="evenodd" clip-rule="evenodd" d="M16.3748 24.8391L16.4158 24.7576C16.2402 25.1765 15.9142 25.5356 15.5151 25.7839C15.8583 25.5536 16.1568 25.2363 16.3748 24.8391ZM15.5151 25.7839C15.4479 25.8257 15.3786 25.8643 15.3076 25.8996C14.8972 26.1035 14.4867 26.2259 14.0763 26.2259C14.5796 26.2259 15.0829 26.0738 15.5151 25.7839ZM2.62477 0H2.70686C3.65089 0 4.55387 0.489441 5.00537 1.38675L14.0352 17.987L11.6957 22.3104C11.4904 22.6774 11.3673 23.0853 11.3673 23.4932V23.6155C11.3673 24.0234 11.4904 24.3905 11.6546 24.7576L0.326264 3.91553C-0.371497 2.65114 0.0799953 1.01967 1.39343 0.326294C1.80388 0.12236 2.21432 0 2.62477 0ZM12.7628 25.8996C12.2703 25.6141 11.9009 25.247 11.6546 24.7576L11.6957 24.8391C12.1472 25.6957 13.0501 26.2259 13.9942 26.2259C13.5837 26.2259 13.1733 26.1035 12.7628 25.8996ZM25.4046 0H25.4867C25.8972 0 26.3076 0.0815735 26.718 0.326294C27.58 0.815735 28.0725 1.67226 28.1136 2.61035V2.73271C28.1136 3.14058 27.9904 3.54845 27.7852 3.91553L16.4569 24.7576C16.621 24.4313 16.7442 24.0642 16.7442 23.6563V23.4932C16.7442 23.0853 16.621 22.6774 16.4158 22.3104L14.0763 17.987L23.1061 1.38675C23.5576 0.530228 24.4606 0 25.4046 0Z" fill="#05C29C"/>
<path d="M14.0352 17.9869L11.6957 22.3103C11.4904 22.6774 11.3673 23.0853 11.3673 23.4932V23.6155C11.3673 24.0234 11.4904 24.3905 11.6546 24.7575L11.6957 24.8391C12.1882 25.7364 13.0912 26.2259 13.9942 26.2259H14.0763C15.0203 26.2259 15.9233 25.6956 16.3748 24.8391L16.4158 24.7575C16.58 24.3905 16.7031 24.0234 16.7031 23.6563V23.4932C16.7031 23.0853 16.58 22.6774 16.3748 22.3103L14.0352 17.9869Z" fill="#0E8383"/>
</g>
<defs>
<clipPath id="clip0_583_12527">
<rect width="28.1429" height="26.2667" fill="white"/>
</clipPath>
</defs>
</svg>
