<svg width="80" height="80" viewBox="0 0 80 80" fill="none" xmlns="http://www.w3.org/2000/svg">
<path d="M41.7839 13.1906C41.6899 13.2746 41.4038 13.2887 41.3547 13.2096C41.2635 13.0628 40.6602 13.4216 40.1138 13.9475C39.9737 14.0824 39.9296 14.5408 40.0141 14.985C40.0432 15.1378 40.0286 15.2204 39.9528 15.332C39.7857 15.578 39.6751 15.91 39.7286 16.0052C39.7552 16.0524 39.7842 16.2415 39.793 16.4253C39.8087 16.753 39.8314 16.8091 40.1341 17.27C40.2493 17.4452 40.2854 17.6495 40.2593 17.9771C40.2527 18.0596 40.2761 18.1617 40.3114 18.204C40.3569 18.2585 40.358 18.2808 40.3152 18.2808C40.2821 18.2808 40.255 18.3063 40.255 18.3373C40.255 18.3684 40.2765 18.3807 40.3027 18.3646C40.3513 18.3347 40.4497 19.7063 40.4023 19.7535C40.388 19.7677 40.407 19.8681 40.4445 19.9767C40.5068 20.157 40.5011 20.1947 40.3789 20.4125C40.2598 20.6247 40.2519 20.672 40.3073 20.8404C40.3539 20.9817 40.3545 21.0966 40.31 21.293C40.2532 21.5431 40.257 21.5625 40.3867 21.6822C40.4847 21.7726 40.5237 21.864 40.5249 22.0061C40.5271 22.2667 40.7049 22.5443 41.034 22.8013C41.454 23.1292 41.5937 23.1689 41.8564 23.0356C41.9765 22.9746 42.1179 22.9243 42.1707 22.9238C42.289 22.9225 42.8304 22.1481 42.8301 21.9805C42.8301 21.9161 42.8541 21.8487 42.8836 21.8305C42.9558 21.7861 42.9521 21.499 42.8788 21.4539C42.8448 21.433 42.8336 21.3475 42.8521 21.2493C42.8734 21.1366 42.8548 21.0393 42.7961 20.956C42.7301 20.8621 42.7115 20.7304 42.7212 20.4234C42.7282 20.1991 42.7303 19.9916 42.7258 19.9622C42.7122 19.8727 42.6711 19.1703 42.6712 19.0281C42.6713 18.9547 42.6431 18.8416 42.6087 18.7768C42.5608 18.6868 42.5612 18.567 42.6102 18.2697C42.6455 18.0556 42.6679 17.7964 42.6599 17.6936C42.6144 17.1083 42.6448 16.6342 42.7341 16.5362C42.7858 16.4794 42.8137 16.3889 42.798 16.329C42.7494 16.1439 42.9787 15.9548 43.3352 15.8863C43.5097 15.8528 43.7316 15.8254 43.8282 15.8254C43.9248 15.8254 44.0185 15.8017 44.0365 15.7728C44.0963 15.6764 47.4392 15.6972 47.5983 15.7949C47.6281 15.8133 47.7443 15.8279 47.8565 15.8273C48.2631 15.8254 48.4478 15.8536 48.5429 15.9321C48.6365 16.0094 49.7879 16.2726 50.3939 16.3553C50.5562 16.3774 50.8012 16.4355 50.9385 16.4844C51.0757 16.5333 51.2264 16.5587 51.2733 16.5408C51.3202 16.5229 51.4413 16.5568 51.5424 16.6161C51.6435 16.6755 51.867 16.7403 52.0391 16.7601C52.2112 16.78 52.4434 16.8421 52.5552 16.8982C52.7154 16.9786 52.8205 16.9929 53.0514 16.9659C53.2548 16.9421 53.3444 16.9502 53.3444 16.9924C53.3444 17.0269 53.4311 17.0532 53.5455 17.0534C53.8491 17.0538 54.1592 17.1542 54.3185 17.3036C54.4337 17.4116 54.4933 17.4303 54.6284 17.4008C54.845 17.3534 55.5462 17.4777 55.5817 17.5697C55.5967 17.6085 55.6652 17.6402 55.7341 17.6402C55.803 17.6402 55.8739 17.6636 55.8916 17.6922C55.9093 17.7208 56.0252 17.7712 56.1491 17.8045C56.2729 17.8377 56.4386 17.9104 56.5172 17.966C56.5958 18.0217 56.7068 18.0673 56.7639 18.0673C56.8226 18.0673 56.8942 18.1253 56.9288 18.2007C56.9624 18.2741 57.0252 18.3342 57.0684 18.3342C57.1117 18.3342 57.2331 18.3847 57.3383 18.4465C57.4435 18.5083 57.5681 18.544 57.6153 18.526C57.7549 18.4728 58.1277 18.597 58.1565 18.7064C58.1792 18.7931 58.5947 18.9573 58.7222 18.93C58.7443 18.9253 58.7625 18.9585 58.7625 19.0039C58.7625 19.0493 58.8337 19.1271 58.9206 19.1768C59.0076 19.2265 59.1025 19.3188 59.1314 19.382C59.1791 19.4862 59.4622 19.6687 59.5761 19.6687C59.6642 19.6687 60.1669 20.2141 60.2209 20.3683C60.254 20.4626 60.3257 20.536 60.404 20.5555C60.4748 20.5732 60.5327 20.6116 60.5327 20.641C60.5327 20.6702 60.5999 20.7817 60.6819 20.8887C60.764 20.9957 60.8635 21.1553 60.903 21.2433C61.0462 21.5621 61.1414 21.7256 61.2385 21.8192C61.2929 21.8718 61.3383 21.9438 61.3393 21.9794C61.3404 22.0149 61.4474 22.2596 61.5773 22.5231C61.7604 22.8945 61.7996 23.0186 61.7523 23.0754C61.7053 23.1317 61.7117 23.1601 61.7802 23.1982C61.8504 23.2373 61.8669 23.3182 61.8582 23.5801C61.8495 23.84 61.8744 23.9641 61.9728 24.1504C62.0666 24.3281 62.0905 24.4383 62.067 24.5847C62.04 24.7527 62.0516 24.785 62.1478 24.81C62.2127 24.8269 62.2446 24.8643 62.2234 24.8985C62.2031 24.9312 62.2101 24.9868 62.239 25.0223C62.2679 25.0576 62.3051 25.1947 62.3216 25.3268C62.3865 25.8451 62.4239 25.9965 62.502 26.0577C62.5467 26.0927 62.5897 26.1887 62.5976 26.2712C62.6056 26.3537 62.6298 26.4635 62.6513 26.5153C62.673 26.5672 62.6749 26.6632 62.6558 26.7288C62.573 27.0122 62.5655 27.3118 62.6381 27.4254C62.6792 27.4896 62.7077 27.6382 62.7015 27.7556C62.6952 27.8767 62.727 28.0269 62.7751 28.1025C62.8434 28.2101 62.8611 28.4193 62.8663 29.1791C62.8703 29.7697 62.8945 30.1488 62.931 30.1933C62.9631 30.2324 62.9932 30.4205 62.9978 30.6114C63.0024 30.8022 63.0094 31.0664 63.0132 31.1985C63.017 31.3307 63.0162 31.5588 63.0113 31.7056C63.0026 31.9697 63.043 32.3416 63.1533 33.0119C63.2018 33.3065 63.1977 33.3711 63.1248 33.4511C63.0542 33.5288 63.0523 33.5499 63.1138 33.5734C63.1547 33.5891 63.193 33.6556 63.1989 33.7213C63.2374 34.1494 63.3674 34.9423 63.4085 34.9997C63.4356 35.0376 63.4549 35.2126 63.4514 35.3888C63.4476 35.5809 63.4741 35.7512 63.5178 35.8144C63.5579 35.8725 63.5905 36.0548 63.5905 36.2215C63.5905 36.4258 63.6167 36.545 63.6716 36.5904C63.7263 36.6355 63.7357 36.6778 63.7005 36.72C63.6653 36.7622 63.6869 36.8601 63.7669 37.0199C63.8581 37.2023 63.8829 37.3368 63.8741 37.602C63.8669 37.8194 63.8858 37.9614 63.9253 37.9857C63.9661 38.0107 63.9863 38.1848 63.9829 38.4815C63.9782 38.8923 63.965 38.9489 63.8529 39.0392C63.7519 39.1206 63.7405 39.1546 63.793 39.2176C63.844 39.2787 63.8419 39.3516 63.7832 39.5574C63.659 39.9933 63.6306 40.3691 63.713 40.4862C63.7564 40.5478 63.7798 40.693 63.7708 40.8447C63.7575 41.0681 63.7764 41.1209 63.9229 41.2713C64.0772 41.4297 64.1092 41.4404 64.3365 41.4096C64.5888 41.3755 64.7123 41.2791 64.7153 41.1137C64.7163 41.0623 64.7395 41.0203 64.7669 41.0203C64.7943 41.0203 64.8711 40.9122 64.9374 40.7801C65.0037 40.648 65.0792 40.5399 65.1052 40.5399C65.1312 40.5399 65.1386 40.5175 65.1217 40.4902C65.1047 40.4629 65.1489 40.3781 65.2199 40.3019C65.3391 40.1738 65.4152 39.9544 65.4194 39.7258C65.4203 39.6745 65.4385 39.6324 65.4599 39.6324C65.5564 39.6324 65.6826 39.3027 65.6826 39.0504C65.6826 38.9008 65.7041 38.7784 65.7303 38.7784C65.7763 38.7784 65.7703 38.4237 65.7126 37.7263C65.6908 37.4624 65.6999 37.4004 65.7575 37.4224C65.8352 37.4521 65.9171 37.3056 65.8676 37.2258C65.8335 37.171 65.7994 37.0151 65.7675 36.7685C65.7555 36.676 65.7172 36.5473 65.6824 36.4827C65.6463 36.4156 65.6337 36.2883 65.6529 36.1863C65.6714 36.088 65.6639 35.9644 65.6362 35.9116C65.5576 35.7622 65.4762 35.4163 65.4459 35.1029C65.4306 34.9457 65.3945 34.7887 65.3656 34.7541C65.3314 34.713 65.3328 34.6179 65.3697 34.4795C65.4532 34.1667 65.4514 33.8534 65.3655 33.7471C65.3239 33.6955 65.2851 33.5513 65.2792 33.4268C65.2733 33.3022 65.2486 33.0201 65.2243 32.7999C65.1999 32.5797 65.186 32.3769 65.1933 32.3491C65.2008 32.3214 65.1787 32.2465 65.1444 32.1827C65.0989 32.0982 65.0966 31.9733 65.1356 31.7239C65.1917 31.365 65.1649 30.8961 65.0854 30.8472C65.0277 30.8117 65.0233 30.5046 65.0805 30.5046C65.1622 30.5046 65.1576 29.366 65.0754 29.2373C65.0236 29.1561 64.976 28.6549 64.9842 28.276C64.9876 28.1219 64.967 27.9958 64.9386 27.9958C64.9102 27.9958 64.8834 27.8937 64.8792 27.7689C64.8668 27.4071 64.8473 27.2824 64.7852 27.1678C64.7532 27.1089 64.7188 26.8051 64.7086 26.4929C64.6985 26.1806 64.6721 25.9361 64.65 25.9494C64.6279 25.9627 64.6072 25.9302 64.6041 25.8771C64.5793 25.4531 64.5631 25.3143 64.5058 25.0333C64.4699 24.8571 64.4338 24.6318 64.4257 24.5327C64.4176 24.4331 64.3714 24.3303 64.3226 24.3031C64.274 24.2761 64.2342 24.2221 64.2342 24.183C64.2342 24.1441 64.1936 24.0192 64.144 23.9055C64.0944 23.7918 64.0481 23.6267 64.0412 23.5386C64.0204 23.2747 63.9363 22.9057 63.8686 22.7815C63.791 22.639 63.7876 22.5874 63.8587 22.6312C63.8882 22.6494 63.9124 22.6387 63.9124 22.6077C63.9124 22.5766 63.8882 22.5511 63.8587 22.5511C63.8292 22.5511 63.8051 22.458 63.8051 22.3441C63.8051 22.2253 63.7708 22.1089 63.7246 22.0707C63.6804 22.0341 63.6441 21.9257 63.6441 21.8297C63.6441 21.7292 63.6122 21.643 63.569 21.6265C63.5277 21.6107 63.4773 21.5 63.457 21.3805C63.4368 21.261 63.3981 21.1633 63.3712 21.1633C63.3443 21.1633 63.3223 21.1302 63.3223 21.0897C63.3223 21.0493 63.2861 20.9863 63.2418 20.9498C63.1964 20.9123 63.1613 20.7959 63.1613 20.6829C63.1613 20.4911 63.0564 20.3247 62.9821 20.3986C62.9626 20.4179 62.9468 20.3704 62.9468 20.293C62.9468 20.1985 62.8939 20.1134 62.7858 20.0339C62.6973 19.9688 62.6249 19.8749 62.6249 19.8253C62.6249 19.7757 62.589 19.7054 62.545 19.6691C62.5011 19.6328 62.4794 19.5803 62.4968 19.5523C62.5142 19.5243 62.4799 19.4887 62.4207 19.4733C62.3615 19.4579 62.3003 19.397 62.2848 19.3381C62.266 19.2666 62.2331 19.2449 62.1859 19.2732C62.1277 19.308 62.1276 19.3003 62.1852 19.2297C62.2444 19.1569 62.239 19.1388 62.1497 19.1106C62.0918 19.0923 62.0055 19.0182 61.9579 18.946C61.9103 18.8737 61.8462 18.8146 61.8154 18.8146C61.7295 18.8146 61.3395 18.4764 61.3384 18.4009C61.3379 18.3642 61.3133 18.3342 61.2838 18.3342C61.2543 18.3342 61.2301 18.2987 61.2301 18.2553C61.2301 18.1475 60.9971 18.0038 60.889 18.0451C60.8299 18.0677 60.801 18.0505 60.801 17.9929C60.801 17.9457 60.7768 17.9071 60.7473 17.9071C60.7178 17.9071 60.6937 17.8585 60.6937 17.7991C60.6937 17.7329 60.6417 17.6713 60.5596 17.6402C60.4858 17.6123 60.4255 17.5649 60.4255 17.5348C60.4255 17.5047 60.389 17.4801 60.3445 17.4801C60.2999 17.4801 60.2221 17.4321 60.1716 17.3734C60.1211 17.3146 60.0414 17.2666 59.9946 17.2666C59.889 17.2666 59.5671 16.9604 59.5671 16.8599C59.5671 16.8194 59.5226 16.7862 59.4681 16.7862C59.4136 16.7862 59.311 16.7386 59.2401 16.6804C59.02 16.4999 59.0059 16.4891 58.9286 16.442C58.8437 16.3903 58.6525 16.3526 58.4138 16.3406C58.3253 16.3361 58.2231 16.3047 58.1869 16.2706C58.1505 16.2366 58.0252 16.1927 57.9083 16.173C57.7914 16.1534 57.6673 16.1032 57.6325 16.0614C57.5976 16.0197 57.542 15.9854 57.5087 15.9853C57.4085 15.9849 56.9172 15.7208 56.8741 15.6441C56.8492 15.5999 56.7791 15.5832 56.6897 15.6002C56.5706 15.6228 56.5516 15.6118 56.5805 15.5369C56.5997 15.487 56.5953 15.4585 56.5707 15.4737C56.546 15.4889 56.3955 15.4763 56.236 15.4457C56.0766 15.4151 55.8796 15.3838 55.7983 15.3761C55.717 15.3684 55.6345 15.3463 55.615 15.3269C55.5955 15.3074 55.5112 15.2916 55.4275 15.2916C55.344 15.2916 55.2756 15.2695 55.2756 15.2426C55.2756 15.2157 55.1005 15.141 54.8866 15.0766C54.6728 15.0121 54.4674 14.9212 54.4302 14.8745C54.3849 14.8175 54.2479 14.7822 54.0144 14.7674C53.8229 14.7553 53.6662 14.727 53.6662 14.7045C53.6662 14.6469 53.2071 14.5386 53.1137 14.5742C53.0711 14.5905 52.9987 14.5664 52.9527 14.5207C52.8941 14.4623 52.7643 14.4375 52.5167 14.4375C52.3174 14.4375 52.1642 14.4143 52.1642 14.3841C52.1642 14.3145 51.7514 14.3145 51.7082 14.3841C51.6586 14.464 51.1376 14.4448 50.984 14.3574C50.9102 14.3155 50.7744 14.2803 50.6821 14.2792C50.5898 14.2782 50.4843 14.2413 50.4475 14.1973C50.4108 14.1533 50.3173 14.1169 50.2398 14.1164C50.1591 14.116 50.1253 14.0988 50.1608 14.0764C50.1948 14.0548 50.114 14.0348 49.9812 14.032C49.8464 14.029 49.7207 13.9961 49.6967 13.9574C49.6719 13.9175 49.6142 13.9032 49.5603 13.9238C49.5081 13.9437 49.4102 13.9226 49.3389 13.8761C49.2494 13.8178 49.1529 13.8035 49.0187 13.8285C48.9129 13.8483 48.811 13.8425 48.7921 13.8159C48.7732 13.7892 48.6547 13.7221 48.5288 13.6669C48.3361 13.5823 48.2799 13.5771 48.1734 13.6337C48.0721 13.6877 48.022 13.6878 47.9218 13.6345C47.8449 13.5935 47.5477 13.5644 47.1506 13.5589C46.7953 13.5541 46.4615 13.5307 46.4086 13.5068C46.3554 13.4829 46.1668 13.4922 45.9853 13.5277C45.7394 13.5759 45.6484 13.5766 45.6198 13.5306C45.5933 13.4879 45.4122 13.4774 45.0239 13.4962C44.7172 13.511 44.4179 13.5226 44.3589 13.522C43.7736 13.5163 43.4752 13.5253 43.3396 13.5525C43.2328 13.5741 43.1426 13.5566 43.0714 13.5008L43.0161 13.4575H42.2667L41.7839 13.1906Z" fill="#160042"/>
<path fill-rule="evenodd" clip-rule="evenodd" d="M24.9639 43.8199C25.2429 43.8044 25.484 43.7791 25.4997 43.7634C25.5154 43.7478 25.5768 43.7477 25.6362 43.7631C26.427 43.9691 26.5312 44.0104 26.8141 44.2302C27.0139 44.3854 27.1562 44.4578 27.2405 44.447C27.3392 44.4342 27.4405 44.5131 27.702 44.8058C27.8863 45.0121 28.1172 45.228 28.2151 45.2855C28.313 45.343 28.4607 45.4937 28.5434 45.6206C28.626 45.7473 28.7059 45.8631 28.7209 45.8778C28.8098 45.9646 28.8739 46.2742 28.8226 46.3695C28.7919 46.4266 28.7788 46.5045 28.7935 46.5426C28.8082 46.5807 28.7998 46.705 28.7748 46.8187C28.7498 46.9324 28.7156 47.1529 28.6988 47.3087C28.6821 47.4645 28.6406 47.6446 28.6067 47.709C28.4386 48.0283 27.6585 48.7107 27.2903 48.8607C27.1966 48.8989 27.0781 48.976 27.0272 49.032C26.9762 49.0881 26.8717 49.1339 26.7949 49.1339C26.7086 49.1339 26.5429 49.226 26.3607 49.3752C26.014 49.659 25.745 49.7508 25.5213 49.6613C25.4373 49.6277 25.1634 49.597 24.9126 49.593C24.5105 49.5866 24.414 49.5645 24.0953 49.4062C23.8966 49.3076 23.7045 49.1913 23.6684 49.1481C23.6323 49.1048 23.5451 49.0476 23.4746 49.021C23.4042 48.9943 23.3344 48.9261 23.3195 48.8694C23.3045 48.8127 23.2406 48.7589 23.1774 48.7499C23.0718 48.7349 22.9581 48.5791 22.7563 48.1731C22.7199 48.0997 22.6321 47.9616 22.5612 47.8663C22.4827 47.7606 22.4435 47.6507 22.4608 47.5848C22.4892 47.4769 22.3827 47.2032 22.2535 47.0521C22.1713 46.956 22.0177 46.5302 22.0166 46.3956C22.0162 46.3428 21.9795 46.2296 21.9351 46.1441C21.861 46.0016 21.8632 45.9732 21.9612 45.7994C22.02 45.6953 22.0666 45.5979 22.0647 45.5829C22.0557 45.5105 22.1415 45.2143 22.2083 45.0869C22.2496 45.0081 22.2837 44.9196 22.2841 44.8903C22.2853 44.7863 22.6377 44.6326 23.0068 44.575C23.3014 44.529 23.3929 44.4923 23.438 44.4022C23.6291 44.0203 24.017 43.8722 24.9639 43.8199ZM26.4637 46.1447C26.4316 46.1447 26.3045 46.0725 26.1811 45.9843C25.8878 45.7748 25.637 45.7011 25.5543 45.8002C25.5206 45.8406 25.4409 45.8892 25.3772 45.9082C24.7979 46.0809 24.4299 46.2842 24.3649 46.4674C24.3303 46.5646 24.4651 46.8386 24.5474 46.8386C24.5811 46.8386 24.592 46.8553 24.5715 46.8755C24.5511 46.8959 24.6609 47.04 24.8155 47.1958C25.0379 47.4199 25.1324 47.4791 25.2672 47.4791C25.3713 47.4791 25.45 47.4471 25.4694 47.3968C25.494 47.333 25.5248 47.327 25.6057 47.3701C25.6632 47.4007 25.7459 47.4258 25.7894 47.4258C25.9178 47.4258 26.4683 47.0894 26.4683 47.011C26.4683 46.9715 26.4927 46.954 26.5224 46.9723C26.5521 46.9906 26.5918 46.962 26.6108 46.9087C26.6297 46.8555 26.7012 46.7364 26.7697 46.6442L26.8942 46.4764L26.7085 46.3506C26.6063 46.2814 26.5226 46.2068 26.5224 46.1847C26.5221 46.1627 26.4958 46.1447 26.4637 46.1447Z" fill="#160042"/>
<path fill-rule="evenodd" clip-rule="evenodd" d="M40.1343 44.8632C40.1859 44.863 40.2977 44.8173 40.3826 44.7616C40.5069 44.6801 40.5672 44.6709 40.6927 44.7144C40.8055 44.7535 40.8944 44.7495 41.0149 44.6998C41.1571 44.6412 41.1902 44.6432 41.242 44.7137C41.2754 44.7591 41.3868 44.8144 41.4896 44.8366C41.5925 44.8588 41.6933 44.9031 41.7137 44.9351C41.7341 44.9671 41.8066 44.9961 41.8747 44.9996C42.0466 45.0084 42.2492 45.0787 42.3277 45.1568C42.3639 45.1929 42.4918 45.2381 42.6118 45.2571C42.7318 45.2763 42.83 45.319 42.83 45.3521C42.83 45.4245 42.9527 45.5252 43.2055 45.6601C43.4875 45.8106 44.2847 46.6001 44.2487 46.6934C44.2298 46.7422 44.2598 46.7819 44.329 46.7999C44.4357 46.8277 44.474 46.983 44.4479 47.2821C44.4433 47.3352 44.461 47.3654 44.4872 47.3493C44.5134 47.3332 44.5503 47.4016 44.569 47.5014C44.598 47.6549 44.578 47.7102 44.4388 47.8612C44.3484 47.9594 44.2596 48.0981 44.2413 48.1695C44.2231 48.241 44.1758 48.3611 44.1363 48.4364C44.0968 48.5118 44.0644 48.6029 44.0641 48.6389C44.064 48.6749 44.0035 48.7438 43.9297 48.7918C43.8559 48.84 43.7956 48.912 43.7956 48.952C43.7956 49.0669 43.3198 49.4112 42.8261 49.6534C42.5773 49.7755 42.319 49.9262 42.252 49.9882C42.1818 50.0533 42.0909 50.0888 42.0375 50.0719C41.9865 50.0558 41.8 50.0693 41.623 50.1018C41.2834 50.1643 41.2758 50.1645 40.7555 50.1269C40.3805 50.0998 40.2548 50.0451 39.9874 49.7929C39.8838 49.6952 39.7546 49.615 39.7003 49.6148C39.5941 49.6143 39.2894 49.3562 39.2894 49.2667C39.2894 49.1758 38.963 48.5315 38.8212 48.3428C38.748 48.2453 38.683 48.0926 38.6769 48.0035C38.6706 47.9144 38.6259 47.8193 38.5774 47.7923C38.5289 47.7653 38.5014 47.7117 38.5162 47.6731C38.5311 47.6345 38.5065 47.5726 38.4615 47.5355C38.4071 47.4905 38.395 47.4386 38.4252 47.3801C38.4502 47.3318 38.4829 47.088 38.4978 46.8382C38.524 46.3986 38.5315 46.3773 38.7328 46.1681C38.8472 46.0492 39.0464 45.8391 39.1755 45.7013C39.3046 45.5635 39.4313 45.4507 39.4571 45.4507C39.4829 45.4507 39.504 45.4147 39.504 45.3707C39.504 45.3266 39.5282 45.2906 39.5577 45.2906C39.5872 45.2906 39.7079 45.1945 39.8259 45.0771C39.9439 44.9597 40.0827 44.8634 40.1343 44.8632ZM42.0988 47.4447C42.0926 47.3609 42.0857 47.2383 42.0833 47.1722C42.0776 47.0148 41.8883 47.0086 41.8474 47.1645C41.831 47.2269 41.7864 47.2662 41.7472 47.2529C41.7084 47.2397 41.6404 47.2692 41.5962 47.3184C41.5519 47.3676 41.4493 47.4508 41.3682 47.5031C41.2442 47.583 41.2206 47.6356 41.2206 47.8319C41.2206 48.0453 41.2311 48.0637 41.3413 48.0433C41.4077 48.0309 41.4681 48.0161 41.4755 48.0102C41.4903 47.9984 41.5724 47.9765 41.6402 47.9662C41.6643 47.9626 41.7799 47.878 41.897 47.7783C42.0626 47.6372 42.1073 47.5632 42.0988 47.4447Z" fill="#160042"/>
<path fill-rule="evenodd" clip-rule="evenodd" d="M31.979 44.9551C32.0703 44.8728 32.2084 44.8388 32.569 44.81C32.828 44.7894 33.0568 44.769 33.0775 44.7647C33.1377 44.7521 33.3885 44.8768 33.3885 44.9193C33.3885 44.9404 33.5742 44.9751 33.8012 44.9963C34.3128 45.0439 34.3477 45.0572 34.6152 45.304C34.7346 45.4141 34.8537 45.5041 34.88 45.5041C34.9597 45.5041 35.2752 45.6707 35.6052 45.8868C35.7769 45.9993 35.9564 46.0913 36.004 46.0913C36.1029 46.0913 36.3385 46.2945 36.3399 46.3808C36.3404 46.4124 36.4491 46.5424 36.5814 46.6695C36.7689 46.8497 36.8517 46.9886 36.956 47.2979C37.1072 47.7459 37.1278 48.103 37.0112 48.2563C36.9679 48.3133 36.9317 48.402 36.9308 48.4533C36.9298 48.5047 36.9032 48.5467 36.8716 48.5467C36.8162 48.5467 36.4197 48.8667 36.0281 49.2273C35.9245 49.3228 35.8126 49.4008 35.7795 49.4008C35.7464 49.4008 35.5066 49.5079 35.2467 49.6388C34.8927 49.817 34.7357 49.8691 34.6211 49.8463C34.5362 49.8294 34.3318 49.8585 34.1622 49.9115C33.8183 50.0192 33.6205 50.0264 33.308 49.9427C33.19 49.911 32.9192 49.8489 32.7062 49.8046C32.3091 49.722 32.1021 49.6299 32.0997 49.5347C32.0989 49.5051 31.9963 49.4343 31.8717 49.3774C31.5886 49.2482 31.0818 48.7499 31.0818 48.6008C31.0818 48.5398 31.0456 48.4762 31.0013 48.4593C30.9571 48.4424 30.9209 48.3951 30.9209 48.3542C30.9209 48.3133 30.8967 48.2798 30.8672 48.2798C30.8377 48.2798 30.8136 48.2092 30.8136 48.1229C30.8136 48.0365 30.7894 47.951 30.7599 47.9329C30.7304 47.9147 30.706 47.8352 30.7057 47.7562C30.7054 47.6772 30.6689 47.4939 30.6247 47.3489C30.5136 46.9843 30.57 46.6328 30.8196 46.1355C31.0216 45.733 31.073 45.6785 31.7523 45.1467C31.8114 45.1004 31.9133 45.0143 31.979 44.9551ZM34.5283 47.4993C34.4473 47.4504 34.3132 47.3641 34.2304 47.3075C34.1475 47.2509 33.9999 47.1917 33.9023 47.1759C33.7462 47.1507 33.707 47.1704 33.5772 47.3398C33.4772 47.4702 33.4378 47.5748 33.4549 47.664C33.4688 47.7364 33.4535 47.8052 33.421 47.8169C33.2727 47.8701 33.4724 47.9186 33.8494 47.921C34.1763 47.9231 34.276 47.905 34.3282 47.8339C34.3645 47.7846 34.4274 47.7569 34.4681 47.7724C34.5088 47.788 34.5721 47.7528 34.6088 47.6944C34.6674 47.6011 34.6574 47.5772 34.5283 47.4993Z" fill="#160042"/>
<path fill-rule="evenodd" clip-rule="evenodd" d="M25.7171 26.3155C25.9087 26.2956 26.0754 26.2694 26.0877 26.2572C26.1193 26.2258 26.8367 26.2894 27.0462 26.3422C27.2475 26.393 27.8095 26.3483 27.8095 26.2815C27.8095 26.257 27.873 26.261 27.9507 26.2903C28.0946 26.3448 29.246 26.3245 29.8463 26.2569C30.1043 26.2279 30.1959 26.239 30.3096 26.3131C30.4115 26.3796 30.4834 26.392 30.5654 26.3573C30.6281 26.3307 30.8364 26.3135 31.0281 26.319C31.509 26.3328 31.721 26.3356 31.9401 26.3312C32.1667 26.3266 32.7402 26.3913 32.8521 26.434C32.8963 26.4509 32.9532 26.4601 32.9784 26.4544C33.0037 26.4487 33.0567 26.4708 33.0963 26.5035C33.1358 26.5362 33.2944 26.5675 33.4486 26.573C33.6151 26.579 33.7378 26.6098 33.7509 26.6489C33.7811 26.7389 34.1849 26.7323 34.365 26.6388C34.4905 26.5736 34.5552 26.5745 34.8478 26.6452C35.2166 26.7342 35.6854 26.7502 36.0855 26.6874C36.2909 26.6551 36.3616 26.6651 36.4425 26.7379C36.5259 26.8131 36.5616 26.8174 36.6498 26.7626C36.7366 26.7086 36.8115 26.7137 37.0559 26.7901C37.2428 26.8486 37.4173 26.8704 37.52 26.848C37.6105 26.8282 37.7137 26.8351 37.7493 26.8634C37.8608 26.9517 38.172 26.9925 38.6573 26.9827C38.9145 26.9774 39.1532 26.9904 39.1878 27.0117C39.2223 27.033 39.438 27.0454 39.6671 27.0394C39.8963 27.0334 40.0979 27.0512 40.1151 27.079C40.1323 27.1067 40.2614 27.1465 40.4019 27.1675C40.5424 27.1884 40.6743 27.2328 40.6951 27.2662C40.7165 27.3006 40.8731 27.3268 41.0572 27.3268C41.2832 27.3268 41.3816 27.3473 41.3816 27.3944C41.3816 27.4316 41.442 27.462 41.516 27.462C41.5899 27.462 41.7769 27.524 41.9317 27.5998C42.149 27.7063 42.2893 27.7365 42.548 27.7326C42.7323 27.7299 42.9254 27.7494 42.9772 27.776C43.029 27.8026 43.2365 27.8492 43.4383 27.8794C43.64 27.9097 43.8478 27.9729 43.8999 28.0198C43.952 28.0667 44.0307 28.0914 44.0747 28.0746C44.1186 28.0578 44.2609 28.0809 44.3908 28.1259C44.5208 28.1709 44.6694 28.2081 44.721 28.2085C44.7726 28.2089 44.8148 28.2292 44.8148 28.2536C44.8148 28.3343 45.7545 28.6897 45.9679 28.6897C46.0532 28.6897 46.5851 29.1904 46.5851 29.2707C46.5851 29.3035 46.6635 29.331 46.7595 29.332C46.9651 29.334 47.091 29.4172 47.1452 29.5871C47.1667 29.6547 47.2668 29.7491 47.3675 29.7969C47.4683 29.8447 47.5507 29.9141 47.5507 29.951C47.5507 29.9879 47.6044 30.0556 47.67 30.1013C47.7829 30.18 48.0167 30.4552 48.1945 30.7187C48.2387 30.7843 48.2993 30.865 48.3292 30.8982C48.359 30.9313 48.4128 31.0244 48.4487 31.1051C48.4847 31.1858 48.5508 31.2519 48.5957 31.2519C48.6408 31.2519 48.6773 31.2984 48.6773 31.3562C48.6773 31.4936 48.7915 31.748 48.8773 31.8017C48.9148 31.8252 48.9462 31.8733 48.9472 31.9085C48.9481 31.9437 49.0082 32.0926 49.0808 32.2394C49.1534 32.3862 49.213 32.5405 49.2132 32.5822C49.2135 32.6239 49.2466 32.696 49.2869 32.7423C49.3271 32.7887 49.4091 32.9742 49.4692 33.1546C49.5293 33.335 49.6444 33.5563 49.7249 33.6463C49.8061 33.737 49.8789 33.8884 49.8881 33.9856C49.9317 34.4464 50.0069 34.7712 50.089 34.8528C50.1766 34.94 50.197 35.0002 50.2523 35.3354C50.2669 35.4235 50.3084 35.5676 50.3446 35.6557C50.3807 35.7438 50.4185 35.9239 50.4283 36.056C50.4382 36.1881 50.4531 36.3563 50.4615 36.4297C50.4699 36.5031 50.456 36.5921 50.4307 36.6275C50.3759 36.7042 50.4335 36.8183 50.5049 36.7744C50.5324 36.7575 50.5548 36.7763 50.5548 36.8162C50.5548 36.8561 50.5821 36.9159 50.6154 36.949C50.6487 36.9822 50.6853 37.1011 50.6966 37.2132C50.7301 37.5442 50.7317 37.5506 50.7784 37.5506C50.8029 37.5506 50.8231 37.6347 50.8231 37.7375C50.8231 37.8402 50.8444 37.9243 50.8704 37.9243C50.8965 37.9243 50.9338 37.9664 50.9532 38.0177C51.0462 38.2628 51.1244 38.3516 51.2515 38.3567C51.3256 38.3596 51.507 38.371 51.6545 38.382C52.1082 38.4158 52.3673 38.4064 52.5137 38.351C52.7082 38.2774 53.0779 38.2801 52.9688 38.3544C52.9121 38.393 52.9674 38.3975 53.1566 38.3696C53.3041 38.3479 53.4852 38.3329 53.5589 38.3362C53.6327 38.3396 53.8207 38.3094 53.9766 38.2692C54.2594 38.1963 54.4172 38.2099 54.4172 38.3074C54.4172 38.3382 54.6586 38.3524 55.0208 38.3429C55.3527 38.3341 55.6528 38.3448 55.6876 38.3667C55.7225 38.3886 55.8376 38.3654 55.9434 38.3152C56.1044 38.2388 56.1649 38.2343 56.3131 38.2876C56.529 38.3653 56.7508 38.3694 56.8847 38.2981C56.957 38.2596 57.0055 38.2654 57.0595 38.3191C57.1052 38.3647 57.193 38.3823 57.2857 38.3647C57.3691 38.3488 57.4239 38.3574 57.4076 38.3836C57.3913 38.4099 57.4541 38.434 57.5471 38.4373C57.5978 38.439 57.6648 38.442 57.7296 38.4453C57.7841 38.4481 57.837 38.4511 57.8773 38.4538C57.9658 38.4597 58.1942 38.4632 58.3848 38.4618C58.5754 38.4603 58.7552 38.4829 58.7845 38.512C58.8137 38.541 58.9273 38.5648 59.037 38.5648C59.1466 38.5648 59.3451 38.6112 59.4779 38.6679C59.6808 38.7544 59.7242 38.7587 59.7489 38.6946C59.7878 38.5937 59.889 38.5965 59.889 38.6983C59.889 38.7423 59.8634 38.7784 59.8322 38.7784C59.801 38.7784 59.7903 38.8024 59.8085 38.8317C59.8268 38.8611 59.9014 38.8851 59.9743 38.8851C60.0473 38.8851 60.1209 38.9212 60.1378 38.9652C60.1548 39.0092 60.2 39.0453 60.2383 39.0453C60.2767 39.0453 60.4075 39.128 60.5291 39.2291C60.6793 39.3539 60.8304 39.4248 61.0006 39.4501C61.1383 39.4708 61.2765 39.5078 61.3076 39.5327C61.3388 39.5574 61.4729 39.6735 61.6056 39.7905C61.7384 39.9075 61.8652 40.0039 61.8873 40.0046C61.9094 40.0055 61.9275 40.0421 61.9275 40.0861C61.9275 40.1302 61.9749 40.1662 62.0329 40.1662C62.0909 40.1662 62.1641 40.2143 62.1957 40.273C62.2273 40.3317 62.3006 40.3797 62.3586 40.3797C62.4165 40.3797 62.464 40.4158 62.464 40.4598C62.464 40.5038 62.4874 40.5399 62.5159 40.5399C62.5445 40.5399 62.6924 40.66 62.8447 40.8068C62.9969 40.9536 63.1507 41.0737 63.1864 41.0737C63.2807 41.0737 63.3739 41.309 63.3376 41.4553C63.3205 41.5243 63.3259 41.5629 63.3498 41.541C63.3952 41.4994 63.5723 41.7117 63.5498 41.7809C63.5427 41.803 63.567 41.822 63.6039 41.8232C63.6928 41.8262 63.9124 42.1731 63.9124 42.3107C63.9124 42.3704 63.9848 42.5261 64.0733 42.6566C64.1618 42.7871 64.2342 42.9288 64.2342 42.9713C64.2342 43.0139 64.2704 43.0487 64.3147 43.0487C64.359 43.0487 64.3923 43.0667 64.3888 43.0887C64.3853 43.1108 64.3879 43.1408 64.3946 43.1554C64.4013 43.1701 64.4119 43.3008 64.4183 43.4459C64.4246 43.5912 64.4582 43.719 64.493 43.7306C64.5277 43.7421 64.5561 43.7956 64.5561 43.8495C64.5561 43.9618 64.3884 44.2756 64.3281 44.2761C64.306 44.2762 64.2879 44.3091 64.2879 44.3491C64.2879 44.458 63.9858 44.815 63.8181 44.9044C63.6281 45.0056 62.8849 45.0255 62.8529 44.9303C62.8406 44.8936 62.8004 44.8636 62.7636 44.8636C62.7268 44.8636 62.6655 44.7976 62.6274 44.7168C62.5893 44.636 62.5294 44.5099 62.4942 44.4365C62.459 44.3631 62.4346 44.2475 62.4399 44.1796C62.446 44.1017 62.4032 44.0257 62.324 43.9741C62.1861 43.8842 62.0348 43.6208 62.0348 43.4707C62.0348 43.4182 62.0107 43.3604 61.9812 43.3423C61.9516 43.3241 61.9275 43.2567 61.9274 43.1923C61.9272 43.1219 61.8633 43.0329 61.7666 42.9686C61.6782 42.9099 61.6059 42.8311 61.6058 42.7935C61.6057 42.7559 61.5687 42.711 61.5236 42.6938C61.4785 42.6765 61.3934 42.5572 61.3345 42.4285C61.2607 42.2672 61.1946 42.1946 61.1215 42.1946C61.0632 42.1946 61.0156 42.1706 61.0156 42.1412C61.0156 42.1119 60.9793 42.0879 60.9351 42.0879C60.8908 42.0879 60.8546 42.0597 60.8546 42.0254C60.8546 41.9197 60.6833 41.7676 60.5642 41.7676C60.5021 41.7676 60.4211 41.7196 60.3843 41.6608C60.3474 41.6021 60.2866 41.5541 60.2492 41.5541C60.2117 41.5541 60.1398 41.506 60.0892 41.4473C60.0387 41.3886 59.9466 41.3406 59.8846 41.3406C59.8225 41.3406 59.7104 41.2925 59.6354 41.2338C59.5604 41.1751 59.4523 41.127 59.3952 41.127C59.338 41.127 59.2574 41.0934 59.216 41.0522C59.167 41.0034 58.9443 40.964 58.5753 40.939C58.2643 40.9179 57.997 40.88 57.9812 40.8547C57.9656 40.8295 57.8353 40.8186 57.6917 40.8304C57.4906 40.8471 57.4108 40.8302 57.3444 40.7572C57.2746 40.6805 57.1767 40.6636 56.8302 40.668C56.5947 40.671 56.4021 40.6563 56.4021 40.6353C56.4021 40.5668 56.176 40.4723 56.1405 40.526C56.0669 40.6372 55.7639 40.6431 55.5249 40.5378C55.3936 40.4801 55.2295 40.4339 55.1602 40.4351C54.3852 40.4496 53.6674 40.4824 53.5589 40.5084C53.4852 40.5262 52.9782 40.5501 52.4324 40.5617C51.8866 40.5733 51.3493 40.5998 51.2385 40.6207L51.0369 40.6586L51.0638 41.093C51.0786 41.3319 51.0897 41.6514 51.0884 41.8029C51.0872 41.9544 51.1056 42.0903 51.1293 42.105C51.153 42.1195 51.1674 42.4029 51.1613 42.7346C51.1548 43.0944 51.1731 43.3651 51.2067 43.4054C51.2434 43.4494 51.2524 43.7205 51.2325 44.1816C51.191 45.1449 51.1911 45.1462 51.2593 45.1882C51.2925 45.2086 51.3027 45.2525 51.2821 45.2857C51.2614 45.3189 51.2713 45.4267 51.304 45.5252C51.3488 45.6602 51.3472 45.7396 51.2974 45.8482C51.2443 45.9641 51.2452 46.0006 51.3017 46.0354C51.3519 46.0662 51.3618 46.1454 51.3362 46.3118C51.3165 46.4401 51.3018 46.6456 51.3034 46.7686C51.305 46.8915 51.2822 47.007 51.2525 47.0253C51.1747 47.0731 51.186 47.2681 51.2656 47.2523C51.3519 47.2351 51.379 47.8451 51.2964 47.9442C51.2363 48.0163 51.2245 48.459 51.2803 48.5488C51.2978 48.577 51.285 48.6001 51.2519 48.6001C51.2122 48.6001 51.1963 48.7143 51.2053 48.9337C51.2141 49.1457 51.1843 49.3698 51.1238 49.5484C51.0549 49.7514 51.0397 49.8922 51.0689 50.0555C51.137 50.4372 51.136 50.491 51.0576 50.615C51.004 50.6997 50.9873 50.8565 51.0008 51.1488C51.0118 51.3884 50.9889 51.6848 50.9463 51.8528C50.9059 52.0124 50.8847 52.1738 50.8993 52.2114C50.9138 52.2491 50.903 52.2937 50.8755 52.3107C50.8478 52.3277 50.8345 52.4751 50.846 52.6382C50.8585 52.8179 50.8369 53.0056 50.7912 53.1144C50.702 53.3267 50.6962 53.4042 50.7694 53.4042C50.7989 53.4042 50.8246 53.3622 50.8264 53.3108C50.8288 53.2454 50.846 53.2574 50.8836 53.3508C50.9131 53.4242 50.927 53.5384 50.9144 53.6044C50.9019 53.6705 50.9184 53.7249 50.9512 53.7253C50.9939 53.7259 50.9942 53.7373 50.9524 53.7653C50.7949 53.871 50.7483 54.7588 50.8907 54.9389C50.9269 54.9846 50.9227 55.0056 50.8775 55.0056C50.8359 55.0056 50.8257 55.0401 50.8497 55.099C50.9756 55.4073 50.9768 55.4863 50.8575 55.6331C50.7107 55.8137 50.5974 56.0656 50.6355 56.1269C50.6511 56.152 50.6393 56.1876 50.6093 56.2061C50.5793 56.2245 50.5548 56.3329 50.5548 56.4468C50.5548 56.5608 50.5307 56.6689 50.5012 56.687C50.4717 56.7052 50.4475 56.7654 50.4475 56.821C50.4475 56.8765 50.4156 56.9411 50.3765 56.9646C50.3375 56.9881 50.2484 57.0854 50.1787 57.1808C50.1089 57.2762 50.0204 57.3543 49.982 57.3543C49.9435 57.3543 49.8576 57.438 49.7909 57.5405C49.7127 57.6605 49.6273 57.7269 49.5503 57.7273C49.4827 57.7277 49.3567 57.8091 49.2601 57.9148C49.1661 58.0175 49.0416 58.1016 48.9835 58.1016C48.9254 58.1016 48.7553 58.1891 48.6056 58.2962C48.4559 58.4032 48.153 58.5562 47.9325 58.6362C47.712 58.7162 47.4816 58.8282 47.4205 58.8853C47.2689 59.0265 46.8067 59.2759 46.6964 59.2759C46.647 59.2759 46.5775 59.3049 46.542 59.3402C46.5065 59.3755 46.3974 59.3991 46.2995 59.3926C46.2017 59.386 46.0147 59.4186 45.884 59.465C45.7533 59.5114 45.4432 59.5612 45.1949 59.5757C44.9466 59.5901 44.6976 59.6263 44.6416 59.6561C44.5704 59.6941 44.5173 59.6919 44.4651 59.6487C44.424 59.6148 44.3641 59.6031 44.332 59.6229C44.3 59.6426 44.2388 59.6299 44.1961 59.5947C44.1345 59.5438 44.0679 59.5542 43.8739 59.645C43.7394 59.7079 43.6032 59.7433 43.5712 59.7236C43.4891 59.6731 41.7566 59.6979 41.6613 59.751C41.6145 59.7771 41.5188 59.7632 41.4248 59.7165C41.3107 59.6598 41.1857 59.6483 40.9728 59.6748C40.8008 59.6961 40.6518 59.6896 40.6143 59.6589C40.5564 59.6115 40.0713 59.5502 39.714 59.5452C39.6377 59.5441 39.4001 59.6041 39.1859 59.6786C38.9716 59.753 38.6358 59.8231 38.4394 59.8341C38.2431 59.8452 37.845 59.8821 37.5548 59.9161C37.2647 59.95 36.9871 59.9624 36.9379 59.9437C36.8888 59.9249 36.8387 59.9133 36.8266 59.9178C36.8216 59.9197 36.8134 59.9153 36.8039 59.9063C36.7905 59.8937 36.7743 59.8721 36.7599 59.8466C36.7262 59.7867 36.6412 59.7722 36.4154 59.7878C36.1581 59.8056 36.0901 59.7892 35.9359 59.6721C35.7644 59.5419 35.7499 59.5397 35.6219 59.6232C35.4739 59.7196 35.1448 59.707 34.8637 59.594C34.6951 59.5263 34.5406 59.4999 34.1395 59.4704C34.0068 59.4607 33.7698 59.4336 33.6129 59.4103C33.3711 59.3744 33.3056 59.384 33.1837 59.4729C33.0666 59.5583 32.9649 59.5758 32.6375 59.5665C32.4162 59.5602 32.0903 59.5538 31.9133 59.5521C31.7363 59.5504 31.5069 59.5481 31.4037 59.547C31.1559 59.5444 30.9662 59.6201 30.5453 59.8896C30.2536 60.0765 30.1635 60.109 29.9931 60.0886C29.8534 60.072 29.7595 60.0914 29.6937 60.1507C29.6163 60.2204 29.4848 60.2354 29.0121 60.2285C28.3485 60.2189 27.8804 60.2993 27.6778 60.4578C27.5918 60.5252 27.3943 60.5861 27.1545 60.6191C26.9427 60.6483 26.6784 60.7183 26.5673 60.7748C26.4562 60.8312 26.31 60.8783 26.2425 60.8795C26.1749 60.8807 26.0361 60.9527 25.9339 61.0396C25.8318 61.1265 25.687 61.1982 25.6121 61.1989C25.4555 61.2004 24.9614 61.3599 24.7249 61.4853C24.6364 61.5322 24.5327 61.5707 24.4944 61.5709C24.4561 61.5711 24.2365 61.6793 24.0063 61.8114C23.7741 61.9447 23.5185 62.0518 23.4322 62.0519C23.3338 62.052 23.1725 62.1306 22.9938 62.2654C22.8383 62.3827 22.6978 62.4787 22.6816 62.4787C22.5566 62.4787 21.6581 63.2076 21.6819 63.2897C21.685 63.3003 21.684 63.3079 21.6797 63.312C21.6728 63.3188 21.6573 63.3165 21.6369 63.3039C21.5694 63.2625 21.2817 63.5469 21.083 63.8514C21.0105 63.9625 20.8397 64.1735 20.7034 64.3202C20.5672 64.467 20.4411 64.6447 20.4233 64.715C20.3871 64.8582 20.3595 64.8934 19.9602 65.3078C19.5454 65.7383 19.2744 65.8806 18.8667 65.8823C18.5753 65.8835 18.5235 65.868 18.4509 65.7578C18.4053 65.6885 18.368 65.5566 18.368 65.4646C18.368 65.2425 18.2216 65.0064 18.0366 64.9302C17.9541 64.8962 17.898 64.8499 17.9121 64.8273C17.9389 64.7841 17.8364 64.446 17.7825 64.4003C17.7429 64.3667 17.7193 64.2369 17.6858 63.869C17.6688 63.681 17.6161 63.5203 17.5371 63.4153C17.4699 63.3259 17.3986 63.1926 17.3787 63.1192C17.3091 62.8626 17.1658 62.5579 17.0699 62.4632C17.0167 62.4107 16.9732 62.3198 16.9732 62.2612C16.9732 62.1524 16.8637 61.949 16.7022 61.758C16.6525 61.6993 16.5982 61.5617 16.5815 61.4522C16.5648 61.3427 16.4873 61.1698 16.4092 61.0679C16.3264 60.9598 16.2564 60.7871 16.2412 60.6532C16.2269 60.5269 16.1926 60.4007 16.165 60.3729C16.1374 60.3449 16.1149 60.2717 16.1149 60.2101C16.1149 60.1484 16.094 60.0752 16.0686 60.0473C16.0431 60.0194 15.993 59.8768 15.9573 59.7303C15.9216 59.584 15.868 59.4349 15.8381 59.3991C15.8082 59.3633 15.7977 59.3116 15.8147 59.2843C15.8316 59.257 15.8096 59.205 15.7656 59.1687C15.7217 59.1324 15.6858 59.043 15.6858 58.9701C15.6858 58.8971 15.6148 58.6897 15.5282 58.509C15.4415 58.3283 15.3576 58.1086 15.3417 58.0209C15.283 57.698 14.9314 56.7137 14.8747 56.7137C14.8341 56.7137 14.7751 56.4558 14.7409 56.1284C14.7271 55.9973 14.6897 55.874 14.6578 55.8543C14.6258 55.8346 14.6099 55.7317 14.6223 55.6256C14.6347 55.5195 14.6283 55.4326 14.608 55.4326C14.5877 55.4326 14.5462 55.2825 14.5159 55.099C14.4487 54.6924 14.3527 54.3085 14.2996 54.2337C14.2779 54.2032 14.2526 54.1062 14.2435 54.0181C14.2343 53.93 14.1928 53.8386 14.1513 53.8151C14.0943 53.7827 14.0895 53.7465 14.1317 53.668C14.1902 53.5594 14.1177 53.1735 14.0154 53.0493C13.9876 53.0155 13.9598 52.8713 13.9536 52.729C13.9474 52.5866 13.9265 52.458 13.9071 52.4433C13.8877 52.4286 13.8568 52.1901 13.8385 51.9132C13.8202 51.6363 13.7862 51.3841 13.7631 51.3528C13.7399 51.3214 13.7158 51.1396 13.7095 50.9488C13.6957 50.5285 13.6549 50.3082 13.5911 50.3082C13.5649 50.3082 13.5428 50.1822 13.542 50.028C13.5395 49.5422 13.5058 49.219 13.4416 49.0642C13.4074 48.9819 13.3698 48.7567 13.358 48.5637C13.3462 48.3708 13.3157 48.198 13.2902 48.1796C13.2441 48.1466 13.2127 47.2354 13.2191 46.118C13.2238 45.2967 13.2238 45.2961 13.187 44.9821C13.1673 44.8149 13.1766 44.6731 13.2097 44.6334C13.2444 44.5918 13.2471 44.5367 13.2168 44.4881C13.1898 44.4449 13.1825 44.1467 13.2003 43.8227C13.2181 43.4998 13.2367 43.1154 13.2416 42.9686C13.2466 42.8218 13.266 42.6657 13.2848 42.6217C13.3357 42.5027 13.4075 41.7534 13.4561 40.8335C13.4686 40.5986 13.5007 40.2143 13.5276 39.9794C13.5545 39.7445 13.5652 39.4003 13.5514 39.2145C13.5373 39.0239 13.5519 38.826 13.5849 38.7607C13.6169 38.697 13.6536 38.5327 13.6663 38.3955C13.679 38.2584 13.7055 38.1203 13.725 38.0887C13.7447 38.0571 13.7703 37.8674 13.7818 37.6671C13.7934 37.4668 13.8398 37.1948 13.8849 37.0626C13.93 36.9306 13.9741 36.7761 13.983 36.7195C13.9918 36.6628 14.0186 36.5853 14.0425 36.5472C14.0664 36.5091 14.072 36.4418 14.055 36.3977C14.0379 36.3535 14.0632 36.2579 14.111 36.1851C14.1976 36.0536 14.2477 35.768 14.2451 35.42C14.2444 35.3198 14.2785 35.1708 14.321 35.0891C14.3635 35.0073 14.3983 34.8431 14.3983 34.7242C14.3983 34.6053 14.4217 34.508 14.4503 34.508C14.4788 34.508 14.4879 34.4708 14.4703 34.4253C14.43 34.3208 14.5508 33.7169 14.6412 33.5707C14.6786 33.5103 14.6983 33.4022 14.685 33.3305C14.6682 33.2398 14.7065 33.1507 14.8112 33.037C14.8939 32.9471 14.9698 32.8168 14.9799 32.7473C14.99 32.6778 15.0297 32.5711 15.0681 32.5102C15.1393 32.3975 15.1923 32.0575 15.2303 31.471C15.2489 31.1841 15.2774 31.1125 15.4617 30.8909C15.5773 30.7518 15.6873 30.5561 15.706 30.456C15.7248 30.3558 15.7883 30.2404 15.8471 30.1994C15.9059 30.1584 15.954 30.083 15.954 30.0318C15.954 29.9806 15.9842 29.9064 16.021 29.8669C16.0568 29.8285 16.0671 29.8122 16.0485 29.8129C16.0387 29.8133 16.0207 29.8185 15.9942 29.8278C15.9654 29.8379 15.9395 29.8443 15.9223 29.8461C15.9086 29.8475 15.9003 29.846 15.9003 29.8413C15.9003 29.7918 16.2183 29.4904 16.2705 29.4904C16.303 29.4904 16.3295 29.4547 16.3295 29.4111C16.3295 29.3631 16.4195 29.3073 16.5575 29.2698C16.7347 29.2217 16.863 29.1228 17.1342 28.8258C17.3259 28.6157 17.5432 28.4146 17.617 28.3789C17.8838 28.2497 18.0294 28.1568 18.1733 28.0242C18.2539 27.9498 18.3436 27.889 18.3727 27.889C18.4017 27.889 18.4806 27.853 18.5481 27.809C18.6157 27.765 18.8501 27.6671 19.0693 27.5916C19.2884 27.516 19.5235 27.4183 19.5917 27.3746C19.6599 27.3308 19.7686 27.2993 19.8331 27.3044C19.8977 27.3095 19.9686 27.311 19.9907 27.3078C20.0129 27.3045 20.0441 27.3031 20.0602 27.3047C20.0762 27.3062 20.1625 27.2461 20.252 27.1712C20.3415 27.0962 20.4563 27.035 20.5072 27.035C20.558 27.035 20.6225 27.0142 20.6506 26.9889C20.6786 26.9635 20.8219 26.9136 20.9691 26.8781C21.1162 26.8426 21.2505 26.791 21.2676 26.7634C21.3107 26.6942 22.0159 26.5046 22.1047 26.5384C22.1443 26.5536 22.1767 26.5454 22.1767 26.5202C22.1767 26.4951 22.3712 26.4805 22.6091 26.4879C22.8607 26.4957 23.0289 26.4809 23.0112 26.4525C22.9814 26.4046 23.5278 26.3827 24.1884 26.4052C24.5591 26.4178 24.8492 26.4089 25.154 26.3753C25.2721 26.3623 25.5254 26.3354 25.7171 26.3155ZM31.4738 28.6258C31.0959 28.5948 30.4488 28.5646 30.0357 28.5585C29.6227 28.5524 29.2478 28.5309 29.2027 28.5106C29.1576 28.4904 29.0934 28.5011 29.0599 28.5344C29.0237 28.5705 28.757 28.6003 28.3987 28.6082C27.976 28.6174 27.7855 28.6419 27.7552 28.6908C27.7203 28.747 27.6813 28.7475 27.5493 28.6931C27.4297 28.6438 27.3396 28.6407 27.2091 28.6815C26.9965 28.7479 25.985 28.7838 25.8961 28.7281C25.8616 28.7065 25.6605 28.7133 25.4491 28.7431C25.2377 28.7729 25.0394 28.7817 25.0084 28.7627C24.9774 28.7436 24.6167 28.729 24.2069 28.7302C23.609 28.7319 23.4353 28.7497 23.3274 28.82C23.2535 28.8682 23.1696 28.8933 23.141 28.8757C23.1123 28.8581 23.0371 28.8798 22.9737 28.924C22.9049 28.9719 22.7995 28.9925 22.7118 28.975C22.6223 28.9572 22.5132 28.9796 22.4321 29.0325C22.359 29.0802 22.262 29.105 22.2166 29.0877C22.1711 29.0703 22.118 29.0817 22.0985 29.1131C22.0791 29.1445 22.0157 29.1701 21.9577 29.1701C21.8997 29.1701 21.7295 29.2542 21.5794 29.357C21.4292 29.4597 21.2601 29.5438 21.2034 29.5438C21.1468 29.5438 21.0866 29.5798 21.0696 29.6238C21.0526 29.6679 21.0084 29.7039 20.9713 29.7039C20.9341 29.7039 20.8404 29.7535 20.763 29.8141C20.6855 29.8748 20.5954 29.908 20.5628 29.8879C20.4883 29.8421 20.2824 29.945 19.9986 30.17C19.8776 30.266 19.7314 30.3445 19.6739 30.3445C19.4414 30.3445 19.0467 30.9308 19.0546 31.2643C19.0566 31.3446 19.0357 31.4241 19.0081 31.441C18.9806 31.4579 18.9581 31.5441 18.9581 31.6325C18.9581 31.7427 18.8864 31.8802 18.7301 32.0697C18.6047 32.2218 18.472 32.3654 18.435 32.3889C18.3982 32.4124 18.368 32.4664 18.368 32.509C18.368 32.5515 18.3239 32.5864 18.27 32.5864C18.2162 32.5864 18.1154 32.6464 18.0461 32.7198C17.9768 32.7932 17.8884 32.8533 17.8497 32.8533C17.8109 32.8533 17.7148 32.9548 17.6361 33.079C17.5573 33.2031 17.4605 33.3369 17.4208 33.3764C17.3812 33.4158 17.3487 33.4884 17.3487 33.5377C17.3487 33.587 17.2789 33.7739 17.1938 33.9531C17.1086 34.1323 17.0225 34.3529 17.0026 34.4432C16.9827 34.5335 16.9317 34.636 16.8893 34.671C16.8469 34.706 16.8123 34.7744 16.8123 34.823C16.8123 34.8715 16.7739 34.9658 16.7271 35.0324C16.6802 35.0991 16.6556 35.1893 16.6724 35.2331C16.6893 35.2768 16.6692 35.4106 16.6277 35.5305C16.5862 35.6502 16.5632 35.7766 16.5765 35.8111C16.5898 35.8457 16.5639 35.978 16.5188 36.1051C16.4737 36.2323 16.4368 36.419 16.4368 36.5199C16.4368 36.6209 16.4114 36.7509 16.3802 36.8087C16.2923 36.9723 16.1669 37.8244 16.2024 38.0179C16.2238 38.1344 16.205 38.236 16.1455 38.3264C16.0967 38.4005 16.0687 38.4802 16.0831 38.5035C16.0976 38.5267 16.0713 38.6161 16.0248 38.7021C15.9677 38.8076 15.9353 39.0319 15.9253 39.3922C15.9095 39.9601 15.9025 40.0058 15.7733 40.3802C15.7229 40.5264 15.6825 40.8734 15.6704 41.2647C15.6594 41.6188 15.6324 41.9374 15.6105 41.9727C15.5709 42.0365 15.5403 42.4347 15.497 43.449C15.448 44.6013 15.4187 45.116 15.3859 45.4033C15.3607 45.6248 15.3743 45.7502 15.4383 45.8842C15.5053 46.0248 15.5128 46.1069 15.4717 46.2497C15.4366 46.3713 15.4366 46.4519 15.4717 46.4868C15.5325 46.5473 15.5437 46.8554 15.4872 46.9117C15.4534 46.9453 15.4344 47.1278 15.4146 47.6126C15.411 47.7007 15.4451 47.9529 15.4904 48.1731C15.5358 48.3933 15.5741 48.8212 15.5756 49.1241C15.5773 49.4433 15.6053 49.7237 15.6423 49.7913C15.6774 49.8554 15.7138 50.04 15.7231 50.2015C15.7324 50.363 15.7772 50.6784 15.8224 50.9025C15.8678 51.1266 15.9121 51.456 15.921 51.6343C15.9299 51.8127 15.9678 51.9953 16.0053 52.0402C16.0427 52.0851 16.0597 52.1569 16.0432 52.1998C16.0266 52.2427 16.049 52.3493 16.0928 52.4368C16.1366 52.5243 16.1821 52.7458 16.1939 52.9292C16.209 53.1655 16.2406 53.2768 16.3024 53.3112C16.3504 53.3379 16.3841 53.4118 16.3774 53.4754C16.3465 53.7668 16.4522 54.7809 16.5314 54.9522C16.5789 55.055 16.624 55.1751 16.6317 55.2191C16.6393 55.2632 16.6731 55.4193 16.7067 55.5661C16.7404 55.7129 16.7665 55.9103 16.7649 56.0048C16.7634 56.0992 16.7933 56.1953 16.8315 56.2183C16.8697 56.2412 16.9333 56.3801 16.9728 56.5269C17.0123 56.6737 17.0769 56.8412 17.1162 56.8991C17.1556 56.957 17.1878 57.0738 17.1878 57.1587C17.1878 57.2436 17.2328 57.4004 17.2878 57.5072C17.4856 57.8913 17.5633 58.1082 17.5635 58.2769C17.5636 58.3713 17.6119 58.5272 17.6708 58.6233C17.7297 58.7195 17.7779 58.8786 17.7779 58.9771C17.7779 59.0755 17.8109 59.1834 17.8514 59.2168C17.8918 59.2501 17.9659 59.3912 18.016 59.5302C18.0662 59.6693 18.1538 59.8754 18.2108 59.9883C18.2677 60.1011 18.3143 60.2267 18.3143 60.2674C18.3143 60.4038 18.4862 60.7705 18.5502 60.7705C18.5864 60.7705 18.617 60.8588 18.6217 60.9774C18.6277 61.1271 18.6759 61.234 18.7963 61.3644C18.8877 61.4635 18.9524 61.5839 18.9401 61.632C18.9277 61.6801 18.9741 61.7882 19.0432 61.8722C19.1123 61.9562 19.1697 62.0513 19.1707 62.0835C19.1718 62.1157 19.2523 62.2238 19.3497 62.3237C19.4471 62.4236 19.5429 62.5474 19.5626 62.5988C19.6189 62.7454 19.6777 62.7136 19.9574 62.3861C20.2977 61.9875 20.8212 61.4299 21.0188 61.2554C21.1047 61.1796 21.2951 61.0032 21.4419 60.8635C21.6092 60.7042 21.901 60.5171 22.2243 60.3616C22.508 60.2253 22.7642 60.0852 22.7937 60.0504C22.8232 60.0155 22.9579 59.9466 23.0931 59.8974C23.2282 59.8481 23.3861 59.7662 23.4438 59.7153C23.5671 59.6068 24.001 59.3823 24.0871 59.3825C24.1198 59.3826 24.2405 59.3192 24.3553 59.2415C24.4701 59.1638 24.6424 59.0786 24.7382 59.0522C24.8341 59.0257 24.9744 58.947 25.05 58.8772C25.1257 58.8075 25.2887 58.734 25.4122 58.714C25.5358 58.6939 25.6865 58.6322 25.7472 58.5768C25.8078 58.5214 26.025 58.4381 26.23 58.3916C26.7221 58.2799 27.3326 58.1079 27.4377 58.0513C27.484 58.0264 27.5835 58.0177 27.6588 58.032C27.7341 58.0463 27.872 58.0188 27.9652 57.9708C28.0598 57.9222 28.3108 57.874 28.5325 57.862C28.7514 57.8501 29.0034 57.8028 29.0927 57.7568C29.182 57.7109 29.3582 57.6627 29.4844 57.6497C29.6106 57.6367 29.7983 57.5995 29.9016 57.567C30.2965 57.4427 30.6627 57.3543 30.7828 57.3543C30.8515 57.3543 30.9944 57.3183 31.1003 57.2742C31.2062 57.2302 31.3734 57.1941 31.4717 57.1941C31.57 57.1941 31.6749 57.1698 31.7048 57.1401C31.7415 57.1036 31.8145 57.1052 31.9297 57.1451C32.03 57.1799 32.2755 57.1928 32.5255 57.1763C32.8762 57.1532 32.9563 57.1627 32.9824 57.2302C33.0037 57.2856 33.0546 57.3021 33.1387 57.281C33.2074 57.2639 33.344 57.2729 33.4425 57.301C33.5669 57.3365 33.644 57.3336 33.6949 57.2916C33.792 57.2114 34.1972 57.2052 34.3594 57.2814C34.4302 57.3147 34.7117 57.3672 34.9848 57.398C35.3154 57.4354 35.511 57.4836 35.5702 57.5425C35.627 57.5991 35.7097 57.621 35.7989 57.6032C35.887 57.5857 35.9863 57.6111 36.0674 57.672C36.1561 57.7386 36.256 57.7611 36.3883 57.7443C36.5076 57.7291 36.62 57.7493 36.6848 57.7975C36.7651 57.8573 36.8256 57.8626 36.9474 57.8203C37.0604 57.7812 37.134 57.783 37.2044 57.8267C37.346 57.9147 37.6826 57.9023 37.7906 57.8052C37.8412 57.7596 37.9975 57.7115 38.1379 57.6985C38.2783 57.6853 38.4257 57.6478 38.4655 57.6149C38.5053 57.5821 38.6026 57.5676 38.6818 57.5826C38.7609 57.5977 39.0326 57.5755 39.2856 57.5334C39.8377 57.4414 40.8817 57.4362 41.2318 57.5237C41.4044 57.5668 41.5572 57.571 41.7146 57.5368C41.8412 57.5093 42.1138 57.5015 42.3204 57.5195C42.5269 57.5375 42.7683 57.5303 42.8568 57.5034C42.9453 57.4766 43.2531 57.4515 43.5408 57.4476C43.8284 57.4437 44.0638 57.4264 44.0638 57.4093C44.0638 57.3922 44.1581 57.3871 44.2735 57.398C44.4291 57.4128 44.5462 57.3811 44.7284 57.2749C44.9036 57.1727 45.0162 57.1409 45.1223 57.1637C45.3711 57.217 46.1803 56.9529 46.2793 56.786C46.3029 56.7462 46.4042 56.7137 46.5043 56.7137C46.6199 56.7137 46.7119 56.6779 46.7564 56.6155C46.795 56.5614 46.8843 56.4867 46.9549 56.4493C47.0255 56.412 47.1503 56.3133 47.2323 56.2298C47.3143 56.1464 47.4728 56.0401 47.5846 55.9937C47.8921 55.8658 48.1727 55.51 48.1132 55.3234C48.0948 55.2657 48.1048 55.2191 48.1356 55.2191C48.1661 55.2191 48.1888 55.1411 48.186 55.0456C48.18 54.8455 48.3383 54.2751 48.4126 54.2294C48.4402 54.2125 48.4627 54.0934 48.4627 53.9647C48.4627 53.8361 48.4826 53.7186 48.5069 53.7036C48.5584 53.6719 48.5459 52.908 48.4925 52.8219C48.4726 52.7899 48.4757 52.7337 48.4993 52.697C48.5467 52.6233 48.5717 52.3102 48.5669 51.8479C48.5653 51.6819 48.5905 51.5297 48.623 51.5096C48.6555 51.4897 48.6781 51.3613 48.6731 51.2244C48.6683 51.0875 48.6917 50.7953 48.7253 50.5751C48.7589 50.3549 48.8013 49.9946 48.8195 49.7744C48.8377 49.5543 48.8725 49.3488 48.8969 49.3177C48.9442 49.2577 49.0289 47.7213 49.0145 47.1856C48.9736 45.6697 48.9931 44.4875 49.062 44.2979C49.11 44.1657 49.1113 44.0887 49.0671 43.9981C49.0343 43.931 48.9919 43.6599 48.9727 43.3956C48.9536 43.1314 48.9283 42.8312 48.9164 42.7284C48.9044 42.6257 48.8944 42.5056 48.894 42.4615C48.8936 42.4175 48.8904 42.3334 48.887 42.2747C48.8835 42.216 48.882 42.1079 48.8836 42.0345C48.8849 41.9729 48.8866 41.8414 48.8877 41.7192L48.8883 41.6502C48.8893 41.5123 48.9138 41.2961 48.9429 41.1698C48.9866 40.9796 48.9809 40.9291 48.9096 40.8756C48.8455 40.8275 48.831 40.7558 48.8526 40.5954C48.8844 40.3593 48.8667 40.3485 48.583 40.4294C48.4647 40.4632 48.409 40.4609 48.409 40.4224C48.409 40.3875 48.3303 40.3762 48.2049 40.3929C48.0764 40.4101 47.9632 40.3929 47.8996 40.3466C47.8439 40.3061 47.7265 40.273 47.6386 40.273C47.5507 40.273 47.4402 40.2383 47.3931 40.196C47.3037 40.1154 46.661 39.9926 46.4262 40.0112C46.3513 40.0171 46.2297 40.0053 46.156 39.985C46.0822 39.9646 45.7925 39.9249 45.5122 39.8967C44.8399 39.829 44.7794 39.8232 44.7421 39.7909C44.738 39.7874 44.7342 39.7835 44.7299 39.7792C44.7078 39.7572 44.6334 39.7392 44.5645 39.7392C44.4957 39.7392 44.3911 39.6911 44.332 39.6324C44.2717 39.5724 44.1532 39.5257 44.0615 39.5257C43.9616 39.5257 43.842 39.4738 43.7534 39.3921C43.6738 39.3186 43.5298 39.2326 43.4335 39.201C43.3371 39.1694 43.2334 39.0971 43.2029 39.0405C43.1632 38.9666 43.1123 38.9463 43.0227 38.9687C42.9297 38.9919 42.8699 38.9648 42.7891 38.8624C42.7294 38.7869 42.6501 38.725 42.6129 38.725C42.5248 38.725 42.0832 38.3938 42.0791 38.3246C42.0774 38.2953 42.0039 38.2009 41.9158 38.1148C41.8277 38.0288 41.728 37.8666 41.6942 37.7545C41.6604 37.6424 41.6065 37.5501 41.5743 37.5495C41.492 37.5479 40.9524 37.0232 40.9524 36.9449C40.9524 36.9095 40.876 36.737 40.7826 36.5616C40.6152 36.2473 40.5713 36.0126 40.556 35.3488C40.5527 35.2093 40.535 35.0952 40.5166 35.0952C40.4753 35.0952 40.4086 34.8191 40.3824 34.5402C40.3718 34.4257 40.3388 34.2456 40.3093 34.1398C40.2798 34.0341 40.2555 33.8815 40.2554 33.8008C40.2552 33.72 40.237 33.6538 40.2148 33.6537C40.1542 33.6531 39.9868 33.339 39.9868 33.2258C39.9868 33.1712 39.961 33.1106 39.9294 33.0911C39.894 33.0694 39.8856 32.9753 39.9076 32.846C39.9297 32.7159 39.9199 32.6081 39.8819 32.5626C39.8431 32.5159 39.8399 32.4773 39.8734 32.4567C39.9024 32.4389 39.9125 32.341 39.8959 32.2392C39.8619 32.0305 39.9825 31.8378 40.3801 31.4652C40.5414 31.3139 40.6336 31.2644 40.711 31.2875C40.77 31.305 40.8264 31.3403 40.8362 31.3657C40.846 31.3912 41.0003 31.412 41.179 31.412C41.5007 31.412 41.5066 31.4148 41.7647 31.6869C41.908 31.8381 42.0253 31.9942 42.0253 32.0339C42.0253 32.0735 42.0462 32.106 42.0718 32.106C42.0974 32.106 42.1788 32.1968 42.2527 32.3079C42.396 32.5235 42.5081 32.9458 42.5081 33.2704C42.5081 33.3795 42.5519 33.5525 42.6055 33.6548C42.7026 33.8403 42.8628 34.7857 42.8112 34.8688C42.7962 34.8928 42.8789 35.0147 42.9947 35.1396C43.1356 35.2914 43.2055 35.4164 43.2055 35.5164C43.2055 35.5987 43.2538 35.7214 43.3128 35.7891C43.3718 35.8568 43.4205 35.9866 43.421 36.0776C43.422 36.2455 43.6107 36.4831 43.7432 36.4831C43.8277 36.4831 44.1535 36.8242 44.1958 36.957C44.2156 37.019 44.3192 37.0827 44.4677 37.1241C44.5996 37.1608 44.7076 37.2069 44.7076 37.2266C44.7076 37.2463 44.8558 37.2928 45.0369 37.3301C45.218 37.3673 45.4008 37.4322 45.4431 37.4742C45.4853 37.5163 45.5845 37.5508 45.6636 37.551C45.7426 37.5512 45.8764 37.5872 45.9609 37.631C46.0454 37.6749 46.142 37.7109 46.1755 37.7111C46.209 37.7113 46.3073 37.7483 46.394 37.7932C46.4847 37.8403 46.6117 37.8618 46.6932 37.8441C46.771 37.8271 46.9053 37.8406 46.9915 37.874C47.0778 37.9075 47.2999 37.9348 47.485 37.9347C47.8007 37.9346 48.0432 37.9836 48.2608 38.0916C48.4308 38.1759 48.5035 38.1418 48.5319 37.9643C48.5508 37.8462 48.5336 37.7705 48.4779 37.7269C48.4259 37.6862 48.4075 37.6173 48.4275 37.538C48.4449 37.4693 48.4232 37.3444 48.3794 37.2604C48.3357 37.1765 48.3121 37.0955 48.3271 37.0806C48.3422 37.0656 48.3258 37.019 48.2909 36.9771C48.2558 36.9351 48.221 36.7768 48.2134 36.6252C48.1786 35.933 48.1274 35.4689 48.0857 35.4689C48.0606 35.4689 48.0232 35.3547 48.0025 35.2153C47.9819 35.0759 47.9502 34.9497 47.9322 34.9351C47.8261 34.8487 47.658 34.5476 47.6577 34.4434C47.6575 34.3763 47.6213 34.2524 47.5772 34.1683C47.5331 34.0842 47.4971 33.9355 47.4971 33.8379C47.4971 33.7402 47.4741 33.6462 47.4461 33.6289C47.3839 33.5907 47.0679 32.98 47.0679 32.898C47.0679 32.8303 46.7079 32.4796 46.6383 32.4796C46.6128 32.4796 46.5844 32.4024 46.5751 32.3079C46.5612 32.1659 46.5283 32.1275 46.3852 32.087C46.2848 32.0585 46.1973 31.9914 46.1768 31.9272C46.1574 31.8663 46.0844 31.7718 46.0146 31.7171C45.9448 31.6625 45.8877 31.5923 45.8877 31.5611C45.8877 31.4909 45.634 31.2519 45.5595 31.2519C45.5295 31.2519 45.5197 31.2059 45.5377 31.1496C45.5641 31.0667 45.5495 31.0527 45.4608 31.0758C45.3988 31.0919 45.3513 31.0783 45.3513 31.0447C45.3513 31.0118 45.3068 30.985 45.2523 30.985C45.1979 30.985 45.1096 30.937 45.0562 30.8783C45.0029 30.8195 44.9267 30.7715 44.887 30.7715C44.8473 30.7715 44.8148 30.7475 44.8148 30.7181C44.8148 30.6888 44.768 30.6647 44.7107 30.6647C44.6534 30.6647 44.5917 30.6407 44.5734 30.6114C44.5552 30.582 44.4893 30.558 44.427 30.558C44.3647 30.558 44.2683 30.5171 44.2127 30.4671C44.1572 30.4171 43.9863 30.3579 43.833 30.3356C43.1741 30.2396 42.7947 30.1517 42.6747 30.0671C42.5938 30.0102 42.4918 29.9874 42.3995 30.0058C42.3188 30.0218 42.2365 30.0086 42.2164 29.9762C42.1963 29.9439 42.0969 29.9174 41.9953 29.9174C41.8938 29.9174 41.8107 29.8908 41.8107 29.8583C41.8107 29.8218 41.7592 29.812 41.6766 29.8326C41.5993 29.8519 41.5425 29.8431 41.5425 29.8117C41.5425 29.7818 41.4899 29.7573 41.4256 29.7573C41.3105 29.7573 41.0284 29.6796 40.8183 29.59C40.7593 29.5648 40.4696 29.5347 40.1746 29.523C39.8795 29.5113 39.5054 29.4717 39.3431 29.435C39.1808 29.3983 38.8791 29.3603 38.6725 29.3507C37.6782 29.3043 37.3077 29.2629 37.0328 29.1673C36.6873 29.0471 36.2123 29.0323 36.0133 29.1356C35.8103 29.2411 34.9092 29.248 34.7517 29.1453C34.6843 29.1013 34.4888 29.0608 34.3173 29.0553C34.1458 29.0498 33.9572 29.0204 33.8981 28.9899C33.8391 28.9595 33.7184 28.9306 33.6299 28.9257C33.4509 28.9159 32.8366 28.7581 32.6538 28.675C32.589 28.6455 32.4516 28.6351 32.3485 28.6517C32.2452 28.6684 31.8517 28.6567 31.4738 28.6258Z" fill="#160042"/>
</svg>
