<svg width="137" height="22" viewBox="0 0 137 22" fill="none" xmlns="http://www.w3.org/2000/svg">
<path d="M136.522 10.5012L136.518 10.4973C136.526 10.6544 136.53 10.8076 136.53 10.9647C136.53 11.1178 136.526 11.2749 136.518 11.4281V11.4752C136.4 14.126 135.332 16.7415 133.31 18.7483C132.124 19.9265 130.71 20.7983 129.166 21.3324C129.053 21.3716 128.935 21.4109 128.821 21.4463L128.808 21.4506L128.798 21.4537L128.773 21.4614L128.756 21.4667L128.746 21.4698C127.757 21.7761 126.72 21.9411 125.66 21.9529H125.283C124.222 21.9411 123.185 21.7761 122.196 21.4698L122.175 21.4631L122.162 21.459C122.148 21.4548 122.134 21.4505 122.121 21.4463C122.007 21.4109 121.889 21.3716 121.776 21.3324C120.232 20.7983 118.818 19.9265 117.632 18.7483C115.614 16.7376 114.542 14.126 114.424 11.4752V11.4281C114.416 11.2749 114.412 11.1178 114.412 10.9647C114.412 10.8076 114.416 10.6544 114.424 10.4973V10.4502C114.487 9.09925 114.805 7.75616 115.366 6.49946C115.377 6.47725 115.386 6.45428 115.396 6.43123L115.4 6.42092C115.411 6.39441 115.421 6.3679 115.433 6.34238C115.437 6.33269 115.442 6.32261 115.447 6.31292L115.454 6.29886C115.456 6.2937 115.459 6.28853 115.461 6.28347C115.987 5.17208 116.709 4.12745 117.632 3.21242C117.636 3.20457 117.64 3.20457 117.644 3.20457C119.294 1.57087 121.336 0.569439 123.456 0.184577C123.488 0.176726 123.519 0.172798 123.551 0.168873C123.68 0.145321 123.81 0.125688 123.939 0.106061C123.982 0.10017 124.026 0.0952101 124.069 0.0903012C124.112 0.0854001 124.155 0.0804975 124.199 0.0746162C124.238 0.070689 124.278 0.06578 124.318 0.0608711C124.359 0.0559704 124.399 0.0510465 124.438 0.047126C124.561 0.0359827 124.687 0.0283526 124.81 0.0209129L124.831 0.0196359C124.851 0.0196359 124.871 0.0176722 124.892 0.0157087C124.912 0.0137451 124.933 0.0117815 124.953 0.0117815C125.125 0.00392717 125.298 0 125.471 0H125.475C125.648 0 125.821 0.00392717 125.993 0.0117815C126.013 0.0117815 126.034 0.0137427 126.054 0.0157051C126.075 0.0176675 126.095 0.0196359 126.115 0.0196359C126.249 0.0274902 126.378 0.0353445 126.508 0.047126L126.523 0.0486428C126.54 0.050462 126.557 0.0524457 126.575 0.0545116L126.628 0.0608711C126.668 0.06578 126.708 0.070689 126.747 0.0746162C126.791 0.080507 126.834 0.0854159 126.877 0.0903249C126.92 0.0952338 126.963 0.100143 127.007 0.106034C127.136 0.125651 127.266 0.145327 127.395 0.168868C127.411 0.170827 127.427 0.173785 127.442 0.176723C127.458 0.179668 127.474 0.182613 127.49 0.184577C129.614 0.573367 131.656 1.57087 133.302 3.20457C133.304 3.20653 133.306 3.20751 133.308 3.2085C133.31 3.20948 133.312 3.21046 133.314 3.21242C134.236 4.12745 134.959 5.16815 135.485 6.28347C135.488 6.29074 135.492 6.29801 135.495 6.30528L135.499 6.31256C135.501 6.31789 135.505 6.32404 135.507 6.32955L135.51 6.33638L135.513 6.34238L135.523 6.36599L135.534 6.39025L135.548 6.42288C135.56 6.44939 135.572 6.4759 135.583 6.50339C136.145 7.76009 136.459 9.10318 136.522 10.4541V10.5012Z" fill="#160042"/>
<path d="M83.7662 14.1751C83.7499 14.1402 83.7279 14.0949 83.7003 14.0396H83.6924L83.7662 14.1751Z" fill="#160042"/>
<path d="M65.9467 13.7253L72.771 1.16637C73.148 0.447701 73.9059 0.003931 74.7306 0.003931C75.5553 0.003931 76.3133 0.447701 76.6903 1.16637L83.5628 13.804C83.5118 13.7255 83.4882 13.7019 83.5275 13.7687L83.7003 14.075C83.807 14.2883 83.8309 14.3137 83.7662 14.1751L86.2019 18.6501C86.3747 18.9564 86.4768 19.2981 86.4768 19.6398V19.7419C86.4768 20.5273 86.033 21.246 85.3104 21.6544C84.9688 21.8272 84.5918 21.9293 84.2462 21.9293C82.0452 21.9293 78.0238 21.9482 74.1395 21.9665L74.1359 21.9665C70.5081 21.9835 67.0003 22 65.2073 22C64.8303 22 64.4886 21.894 64.143 21.7251C63.4243 21.3167 63.012 20.598 62.9766 19.8126V19.6751C62.9766 19.3335 63.0787 18.9918 63.2515 18.6855L65.7163 14.1494C65.7775 13.9996 65.8551 13.8575 65.9467 13.7253Z" fill="#160042"/>
<path d="M53.685 0.145309C53.685 0.145309 53.6496 0.137455 53.6339 0.137455C53.5527 0.124366 53.4716 0.114764 53.3904 0.105166C53.3498 0.100365 53.3093 0.0955652 53.2687 0.0903287C53.2464 0.0877106 53.2242 0.0846561 53.2019 0.0816016C53.1574 0.0754927 53.1129 0.0693838 53.0684 0.0667657L52.8013 0.0432027L52.5068 0.0196397C52.4675 0.0176761 52.4292 0.0166944 52.391 0.0157126C52.3527 0.0147308 52.3144 0.0137489 52.2751 0.0117853C52.226 0.0117853 52.1769 0.00982176 52.1278 0.00785818C52.0787 0.00589459 52.0297 0.003931 51.9806 0.003931H45.2101C43.9731 0.003931 42.9756 0.993577 42.9756 2.22278V2.25813C42.9756 2.44824 42.9719 2.56749 42.9699 2.6328C42.9677 2.7024 42.9675 2.71075 42.9756 2.67833V19.3217C42.9675 19.2894 42.9677 19.2965 42.9698 19.3648C42.9718 19.4295 42.9756 19.5491 42.9756 19.7419V19.7772C42.9756 21.0064 43.9731 21.9961 45.2101 21.9961H51.9806C52.0787 21.9961 52.1768 21.9921 52.275 21.9882C52.3535 21.9882 52.4322 21.9882 52.5068 21.9804C52.5722 21.9777 52.6377 21.9716 52.7032 21.9655L52.7661 21.9598L52.8013 21.9568L52.8322 21.9543L52.8894 21.95C52.95 21.9456 53.0101 21.9412 53.0684 21.9332L53.2687 21.9097L53.3109 21.9044L53.3905 21.8948C53.4717 21.8852 53.5528 21.8756 53.6339 21.8626C53.6418 21.8626 53.6506 21.8606 53.6594 21.8586L53.6688 21.8566C53.6744 21.8555 53.6799 21.8547 53.685 21.8547C58.9199 21.0182 62.9099 16.5452 62.9413 11.1021V10.8979C62.9099 5.45484 58.9199 0.981796 53.685 0.145309Z" fill="#160042"/>
<path d="M21.3356 0.003931C21.6812 0.003931 22.0228 0.0746201 22.3684 0.278833C23.091 0.687258 23.5034 1.40593 23.5387 2.19136V2.29347C23.5387 2.63513 23.4366 2.9768 23.2638 3.28312L13.8111 20.653C13.8257 20.6384 13.6701 20.9472 13.4077 21.2275C12.996 21.6894 12.398 21.9607 11.7808 21.9607H11.714C11.6225 21.9607 11.531 21.9547 11.44 21.9426L11.4273 21.9411L11.419 21.9398C11.0442 21.8865 10.68 21.7324 10.3699 21.487C10.1998 21.3536 10.0486 21.1947 9.92349 21.0131C9.87569 20.9449 9.83099 20.8733 9.78975 20.7983L9.75441 20.7315L9.73718 20.6927L0.274174 3.28312C-0.310974 2.22278 0.066034 0.856127 1.16171 0.278833C1.5073 0.106037 1.84897 0.003931 2.19456 0.003931H21.3356Z" fill="#160042"/>
<path d="M111.823 1.402L111.858 1.48447L111.874 1.4884C111.878 1.49821 111.88 1.50802 111.882 1.51783C111.884 1.52766 111.886 1.53748 111.89 1.54731C111.96 1.75152 112 1.96752 112 2.19136V19.8126C112 21.0104 111.002 22 109.765 22C108.443 22 107.615 21.9996 106.515 21.999H106.513C104.326 21.9978 101.062 21.9961 90.7103 21.9961C89.4733 21.9961 88.4758 21.0025 88.4758 19.8086V2.18351C88.4758 1.96359 88.519 1.74759 88.5858 1.53945C88.5897 1.51982 88.5936 1.50018 88.6015 1.48055C88.6067 1.46222 88.6154 1.44389 88.6242 1.42557L88.6301 1.41295C88.6324 1.40799 88.6347 1.40303 88.6368 1.39808C88.8921 0.75402 89.438 0.251343 90.1448 0.07462C90.1527 0.0706929 90.1566 0.0706929 90.1605 0.0706929C90.298 0.00393103 90.4708 0.003931 90.6436 0.003931H90.781C91.5704 0.003931 92.293 0.447701 92.67 1.13103L100.23 10.0797L107.79 1.13496C108.167 0.451628 108.889 0.00785818 109.679 0.00785818H109.816C109.989 0.00785818 110.162 0.00785818 110.299 0.07462C110.307 0.0785472 110.311 0.0785472 110.315 0.0785472C111.022 0.25527 111.568 0.757947 111.823 1.402Z" fill="#160042"/>
<path d="M32.9818 0.145405C32.9818 0.145405 33.0171 0.137551 33.0328 0.137551C33.114 0.124463 33.1951 0.114862 33.2763 0.105264C33.3169 0.100464 33.3575 0.0956611 33.3981 0.0904246C33.4203 0.0878121 33.4425 0.0847652 33.4647 0.0817173C33.5092 0.0756084 33.5538 0.0694797 33.5983 0.0668616L33.8654 0.0432986L34.1599 0.0197356C34.1992 0.017772 34.2375 0.0167902 34.2758 0.0158085C34.3141 0.0148267 34.3524 0.0138448 34.3916 0.0118812C34.4407 0.0118812 34.4898 0.00991764 34.5389 0.00795406C34.588 0.00599047 34.6371 0.00402688 34.6862 0.00402688H37.7913C39.0283 0.00402688 40.0258 0.993673 40.0258 2.22288V2.25822C40.0258 2.44834 40.0295 2.56758 40.0315 2.6329C40.0337 2.7025 40.0339 2.71084 40.0258 2.67843V19.3218C40.0339 19.2895 40.0337 19.2966 40.0315 19.3649C40.0295 19.4296 40.0258 19.5491 40.0258 19.742V19.7773C40.0258 21.0065 39.0283 21.9962 37.7913 21.9962H34.6862C34.588 21.9962 34.4899 21.9922 34.3917 21.9883C34.3132 21.9883 34.2345 21.9883 34.1599 21.9805C34.0945 21.9778 34.0291 21.9717 33.9637 21.9656L33.9006 21.9599L33.8654 21.9569L33.8345 21.9543L33.7773 21.9501C33.7167 21.9457 33.6566 21.9413 33.5983 21.9333L33.3981 21.9098L33.3558 21.9045L33.2762 21.8949C33.1951 21.8853 33.114 21.8757 33.0328 21.8626C33.025 21.8626 33.0161 21.8607 33.0073 21.8587C32.9985 21.8568 32.9896 21.8548 32.9818 21.8548C27.7469 21.0183 23.7569 16.5453 23.7254 11.1022V10.898C23.7569 5.45494 27.7469 0.981892 32.9818 0.145405Z" fill="#160042"/>
</svg>
