<svg width="31" height="24" viewBox="0 0 31 24" fill="none" xmlns="http://www.w3.org/2000/svg">
<path d="M14.472 0.634937C14.4218 0.670089 14.3431 0.785984 14.297 0.892443C14.2509 0.998935 14.1755 1.12889 14.1294 1.18125C14.011 1.3156 13.9227 1.68716 13.8911 2.18324C13.8836 2.30021 13.8774 2.41409 13.8733 2.50337C13.8692 2.5927 13.8672 2.65738 13.8684 2.67586C13.8796 2.84876 13.8662 3.0068 13.8359 3.06099C13.8176 3.09372 13.817 3.30762 13.8345 3.53632C13.8644 3.92742 13.848 4.20893 13.7894 4.30982C13.7881 4.31194 13.787 4.31454 13.7859 4.31755C13.7809 4.33119 13.7772 4.35359 13.7752 4.38064C13.7726 4.41629 13.7728 4.46002 13.7765 4.50239C13.7835 4.58404 13.7697 4.67499 13.7458 4.70456C13.7206 4.73577 13.7091 5.02121 13.7183 5.38526C13.7369 6.11832 13.738 6.23848 13.729 6.49366C13.7193 6.76871 13.7777 7.78843 13.8272 8.20663C13.8339 8.26349 13.8404 8.3241 13.8463 8.3839C13.8501 8.42188 13.8536 8.45955 13.8568 8.49574C13.8659 8.6 13.8722 8.692 13.8733 8.74403C13.8753 8.84255 13.8861 9.08439 13.8971 9.28143C13.9465 10.1628 13.96 10.4834 14.0191 12.1812C14.0313 12.5319 14.021 12.7203 13.9881 12.7461C13.9153 12.8033 13.211 12.8513 13.1801 12.8012C13.1506 12.7536 12.2611 12.7629 12.1821 12.8117C12.154 12.8291 12.054 12.8141 11.96 12.7784C11.7739 12.7077 11.1096 12.6514 9.80349 12.5955C9.49958 12.5826 9.21374 12.552 9.16826 12.5277C9.12282 12.5033 9.00705 12.4835 8.91097 12.4835C8.81497 12.4835 8.72116 12.4683 8.70258 12.4499C8.68395 12.4314 8.50424 12.415 8.30324 12.4134C8.1022 12.4118 7.84705 12.3828 7.73623 12.3489C7.62537 12.315 7.37346 12.2827 7.17644 12.277C6.62023 12.261 6.04911 12.1931 5.97848 12.1345C5.94327 12.1053 5.75504 12.0772 5.56021 12.0723C5.36537 12.0672 5.17574 12.0484 5.13879 12.0304C5.10183 12.0124 4.94063 11.9638 4.78052 11.9223C4.62041 11.8808 4.4683 11.8298 4.44254 11.8089C4.41674 11.7881 4.31961 11.7627 4.22667 11.7524C4.13374 11.7422 4.03494 11.711 4.00708 11.6832C3.97927 11.6554 3.91419 11.6326 3.86245 11.6326C3.81072 11.6326 3.74923 11.6134 3.72579 11.5899C3.6842 11.5484 3.41449 11.5174 3.32505 11.5439C3.32234 11.5447 3.31928 11.5453 3.31591 11.5458C3.3132 11.5461 3.31027 11.5463 3.30716 11.5464L3.30284 11.5465C3.29291 11.5464 3.28149 11.5453 3.26947 11.5432C3.26391 11.5423 3.25823 11.5411 3.2525 11.5398L3.2462 11.5382L3.23855 11.5361C3.22687 11.5328 3.21532 11.5287 3.20461 11.524C3.16302 11.5057 3.01721 11.5139 2.88058 11.5423C2.74396 11.5707 2.61179 11.5812 2.58682 11.5659C2.50985 11.5182 2.26831 11.6922 2.20621 11.8401C2.09337 12.1085 2.09958 12.6367 2.21714 12.7672C2.2652 12.8205 2.3413 12.9284 2.38622 13.007C2.4826 13.1755 2.71295 13.2717 3.21602 13.3534C3.40242 13.3837 3.58151 13.4249 3.61405 13.445C3.64654 13.4651 3.80643 13.4991 3.9693 13.5206C4.13221 13.5421 4.33526 13.5689 4.42054 13.5802C4.50587 13.5915 4.60663 13.6132 4.64446 13.6283C4.68233 13.6434 4.76307 13.6653 4.8239 13.6769C4.88474 13.6884 4.95523 13.7142 4.98064 13.734C5.00605 13.7538 5.19813 13.7827 5.40749 13.7982C5.61684 13.8137 5.93929 13.8553 6.12402 13.8906C6.30876 13.9259 6.59088 13.9596 6.75099 13.9655C6.9111 13.9714 7.154 14.0019 7.29076 14.0334C7.42751 14.0648 7.72753 14.1022 7.95744 14.1166C8.1873 14.131 8.3915 14.1527 8.41118 14.1648C8.45806 14.1938 9.86743 14.248 10.2545 14.2357C10.4204 14.2305 10.6322 14.2466 10.7251 14.2717C10.8181 14.2967 11.1661 14.328 11.4984 14.3412C11.8307 14.3543 12.3344 14.376 12.6176 14.3893C12.9009 14.4026 13.3469 14.4124 13.6089 14.4111L13.6258 14.411C13.9103 14.4096 14.0784 14.4088 14.1791 14.4907C14.3245 14.6091 14.3294 14.9 14.3415 15.6109L14.342 15.6407C14.3491 16.0594 14.3793 16.5028 14.4092 16.6259C14.4391 16.7491 14.4619 16.9405 14.4598 17.0514C14.4577 17.1622 14.4863 17.4846 14.5235 17.7679C14.5938 18.3027 14.6541 19.0087 14.7041 19.8798C14.7202 20.1592 14.7523 20.4242 14.7756 20.4687C14.7989 20.5131 14.8177 20.7449 14.8175 20.9837C14.8169 21.544 14.8291 21.6885 14.8976 21.9291C14.9285 22.0379 14.9626 22.2293 14.9732 22.3545C15.014 22.8328 15.139 22.9273 15.4787 22.7364C15.6421 22.6445 15.6829 22.5708 15.8114 22.1343C15.8404 22.0358 15.9081 21.9196 15.9618 21.8761C16.045 21.8088 16.0602 21.7486 16.0643 21.473C16.0668 21.2948 16.0709 21.1088 16.0733 21.0595C16.1034 20.4293 16.0455 18.6752 15.9859 18.413C15.963 18.3121 15.9401 18.0411 15.935 17.8107C15.93 17.5803 15.9148 17.3738 15.9013 17.352C15.8784 17.315 15.853 16.9448 15.8205 16.1781C15.8163 16.0781 15.8046 15.9208 15.7899 15.7582C15.7793 15.6406 15.7671 15.5202 15.7549 15.4168C15.6732 14.7167 15.6682 14.6173 15.7103 14.5386C15.755 14.4552 16.2149 14.4152 17.5045 14.3824C17.9079 14.3722 18.3589 14.353 18.5067 14.3398C18.6545 14.3266 18.9366 14.3102 19.1336 14.3033C19.7719 14.2809 21.4079 14.1377 21.7759 14.0718C21.9729 14.0366 22.3155 13.9863 22.5372 13.96C23.0847 13.8949 23.122 13.8891 23.1685 13.8615C23.1907 13.8483 23.4187 13.8243 23.6751 13.8081C23.9314 13.792 24.1631 13.765 24.1901 13.7482C24.2534 13.7087 24.6884 13.6464 24.8817 13.6491C24.9643 13.6503 25.0563 13.6309 25.0861 13.6061C25.1161 13.5813 25.2601 13.5483 25.4063 13.5328C25.5564 13.5168 25.7259 13.4667 25.7958 13.4177C25.864 13.3698 25.9446 13.3362 25.9749 13.3428C26.0054 13.3495 26.0848 13.2999 26.1515 13.2327C26.251 13.1321 26.3121 13.1104 26.4956 13.1104C26.6183 13.1104 26.7754 13.0886 26.8447 13.0619C26.914 13.0352 27.0577 13.009 27.1639 13.0036C27.3163 12.9958 27.3852 12.9636 27.4909 12.8506C27.5841 12.7508 27.6656 12.7074 27.7597 12.7074C27.8339 12.7074 27.9387 12.6832 27.9925 12.6536C28.0463 12.6241 28.22 12.586 28.3784 12.569C28.7025 12.5342 28.7845 12.4659 28.7845 12.2307C28.7845 12.0602 28.6989 11.8487 28.6437 11.8829C28.6227 11.8959 28.5607 11.8751 28.5059 11.8367C28.366 11.7387 28.2784 11.7495 28.1659 11.8789C28.0594 12.0013 27.9141 12.0208 27.731 11.9374C27.638 11.895 27.6063 11.8959 27.578 11.9418C27.5456 11.9942 27.5024 12.0008 27.2507 11.9915C26.9952 11.982 26.72 12.0067 26.6987 12.041C26.6852 12.0628 26.6269 12.0689 26.5692 12.0544C26.5095 12.0394 26.4189 12.0568 26.3592 12.0948C26.2839 12.1427 26.133 12.1607 25.8252 12.1585C25.5892 12.1567 25.3776 12.1654 25.3549 12.1776C25.3323 12.1899 25.2132 12.2051 25.0902 12.2114C24.9673 12.2177 24.8489 12.2338 24.8272 12.2473C24.8234 12.2496 24.8171 12.252 24.8086 12.2545C24.7923 12.2593 24.768 12.2644 24.7386 12.2693C24.6939 12.2767 24.6376 12.2836 24.5805 12.2882C24.2902 12.3112 24.2 12.3264 24.1429 12.3617C24.1157 12.3785 24.0052 12.3843 23.8975 12.3746C23.7712 12.3631 23.6634 12.3812 23.5944 12.4253C23.5194 12.4733 23.4289 12.4859 23.2924 12.4672C23.1852 12.4525 22.9412 12.4692 22.7502 12.5044C22.5592 12.5396 22.1509 12.5798 21.8431 12.5938C21.0539 12.6296 20.682 12.6657 20.6551 12.7093C20.6423 12.7299 20.569 12.7249 20.4921 12.6981C20.3881 12.6618 20.3133 12.6634 20.2008 12.7041C20.1174 12.7342 19.973 12.7533 19.8797 12.7466C19.7865 12.7398 19.6445 12.7616 19.5642 12.7948C19.4529 12.8409 19.3702 12.8443 19.217 12.8093C18.984 12.756 18.3395 12.7709 18.1074 12.835C17.9225 12.886 16.8256 12.8508 16.7623 12.7918C16.7015 12.7351 16.5274 12.7429 16.4247 12.807C16.3587 12.8483 16.3242 12.8492 16.2855 12.8105C16.2483 12.7733 16.2052 12.7722 16.1295 12.8068C16.0536 12.8413 15.9704 12.8391 15.8261 12.7987C15.6285 12.7434 15.6271 12.7417 15.5972 12.5018C15.5806 12.369 15.5807 12.2174 15.5974 12.1648C15.6187 12.0974 15.6121 12.0788 15.575 12.1018C15.5359 12.126 15.5279 12.0682 15.5442 11.8796C15.5453 11.867 15.5465 11.8546 15.5477 11.8424C15.5487 11.8322 15.5497 11.8222 15.5508 11.8123C15.5533 11.7897 15.556 11.768 15.5587 11.7477L15.5616 11.7267C15.5716 11.6578 15.5825 11.6085 15.5906 11.6004C15.5986 11.5924 15.5974 11.5699 15.5889 11.5419C15.5875 11.5373 15.5859 11.5326 15.5842 11.5278C15.581 11.5191 15.5772 11.5101 15.573 11.501C15.5699 11.4944 15.5665 11.4878 15.5629 11.4812C15.4983 11.3636 15.4826 11.216 15.4621 10.5354C15.4327 9.56376 15.3913 8.6128 15.3704 8.43054C15.3591 8.33201 15.3403 8.02972 15.3285 7.75879C15.3167 7.48785 15.2861 7.11503 15.2604 6.93029C15.2549 6.89076 15.2497 6.85092 15.2449 6.81223C15.2418 6.78741 15.2389 6.76305 15.2362 6.73955L15.2335 6.71646L15.2323 6.70545C15.2217 6.61006 15.2153 6.53346 15.2159 6.50485C15.2277 5.9979 15.1979 4.99094 15.1489 4.24328C15.1079 3.61886 15.1024 3.25034 15.1316 3.09109C15.1582 2.94546 15.1587 2.8269 15.1326 2.77761C15.1096 2.73394 15.1001 2.46649 15.1114 2.18324C15.1423 1.41148 15.1407 1.39487 15.0173 1.14175C14.7294 0.551548 14.67 0.496279 14.472 0.634937Z" fill="#160042"/>
<path d="M6.05462 1.15075C6.03122 1.17399 5.89114 1.21958 5.74336 1.25196C5.51822 1.30136 5.46355 1.33261 5.40613 1.4448C5.36848 1.51842 5.30375 1.62935 5.26233 1.69133C5.21895 1.75618 5.1771 1.93321 5.16376 2.1084C5.15099 2.27585 5.12995 2.43 5.11696 2.451C5.10397 2.472 5.11329 2.54164 5.13765 2.60568C5.16936 2.68911 5.16223 2.80694 5.11259 3.02109C5.06431 3.22942 5.05661 3.34792 5.08722 3.41218C5.11145 3.46288 5.15567 3.71787 5.18554 3.97883C5.228 4.3495 5.22805 4.48914 5.18584 4.617L5.13183 4.78068L4.69865 4.78767C4.46043 4.79152 4.20856 4.79725 4.13898 4.80034C4.10841 4.80172 4.07903 4.80091 4.05497 4.79846C4.02427 4.79532 4.00227 4.78952 3.99772 4.78216C3.98959 4.76904 3.59769 4.76062 3.12676 4.76349C2.65579 4.76635 2.26127 4.75372 2.24994 4.73541C2.23866 4.71708 2.16352 4.71571 2.08305 4.73232C2.00258 4.74893 1.84606 4.74669 1.73524 4.7274C1.62437 4.70804 1.41279 4.6805 1.26501 4.66617L0.996307 4.64016L0.705214 4.87352C0.404193 5.11486 0.295208 5.22341 0.179401 5.39717C0.0858103 5.53761 0.177433 5.86252 0.377166 6.09866C0.45908 6.19544 0.52608 6.3065 0.52608 6.34538C0.52608 6.41228 0.675125 6.53731 0.772389 6.55205C0.797012 6.55577 0.938097 6.54443 1.08587 6.52684C1.23365 6.50924 1.3848 6.50973 1.42175 6.52791C1.45871 6.54609 1.65013 6.54421 1.84719 6.5237C2.30334 6.47627 3.02779 6.46137 3.06505 6.49867C3.12248 6.55604 3.66648 6.52665 3.79703 6.45917C3.83009 6.44207 3.86254 6.42648 3.88926 6.41464C3.90811 6.40627 3.92412 6.39978 3.93545 6.39593C3.93973 6.39448 3.94336 6.3934 3.94621 6.39274C3.94852 6.3922 3.95032 6.39195 3.95158 6.392C3.96409 6.39249 3.9794 6.39033 3.98561 6.38721C4.00721 6.37619 4.76123 6.34671 5.04314 6.34587C5.45385 6.34461 5.47458 6.3855 5.5208 7.28856C5.54669 7.79565 5.54796 7.80608 5.64767 8.34034C5.68437 8.53704 5.69849 8.71842 5.67899 8.74341C5.63517 8.79966 5.63477 8.94555 5.67851 8.94555C5.72434 8.94555 5.85191 9.35402 5.88476 9.60585C5.90002 9.72299 5.93238 9.85747 5.9567 9.90473C5.98101 9.95198 6.00756 10.0597 6.01574 10.1441C6.0247 10.2364 6.07832 10.3448 6.1504 10.4164C6.2163 10.4819 6.31698 10.6091 6.37418 10.6992C6.49226 10.8851 6.72117 10.9843 6.92763 10.939C7.00001 10.9231 7.10069 10.9323 7.15138 10.9594C7.22315 10.9978 7.24361 10.9954 7.24361 10.9488C7.24361 10.9159 7.30414 10.8065 7.37818 10.7059C7.59213 10.415 7.63975 10.2274 7.60376 9.81822C7.58649 9.62153 7.54638 9.41221 7.51472 9.35309C7.47829 9.28502 7.46718 9.17288 7.48441 9.04717C7.49937 8.93803 7.49123 8.81077 7.46639 8.76436C7.44155 8.71793 7.41278 8.54321 7.4025 8.37608C7.39218 8.209 7.36003 7.88082 7.33099 7.64683C7.30195 7.41283 7.27208 7.00441 7.26465 6.7392L7.25109 6.25697L7.37048 6.19553C7.44536 6.15706 7.79322 6.11577 8.30267 6.08496C8.74972 6.05796 9.16891 6.01555 9.23421 5.99074C9.29946 5.96587 9.45764 5.9463 9.58578 5.9472C10.084 5.95074 10.7093 5.86261 10.954 5.75432C11.1038 5.68809 11.2485 5.66628 11.5248 5.66834C11.8648 5.67089 11.9096 5.66046 12.0751 5.54057C12.206 5.44576 12.2689 5.35942 12.3051 5.22498C12.3492 5.06099 12.3425 5.0136 12.2455 4.80881L12.1361 4.57773L11.544 4.59151C11.2184 4.59908 10.9287 4.58713 10.9003 4.56491C10.8491 4.52487 9.99002 4.53124 9.25887 4.577C8.68609 4.61292 7.18781 4.61252 7.095 4.57647C7.01996 4.54731 7.01515 4.49169 7.03417 3.86786C7.0455 3.49553 7.07594 2.99941 7.10191 2.76543C7.1296 2.5157 7.13327 2.27522 7.11088 2.18324C7.08984 2.09703 7.05949 1.93065 7.0434 1.8135C7.00946 1.56679 6.8783 1.40485 6.56792 1.22648C6.35992 1.10695 6.13238 1.0734 6.05462 1.15075Z" fill="#160042"/>
<path d="M25.2466 2.04656C25.3328 1.97114 25.4614 1.88489 25.5324 1.85488C25.7095 1.78 26.243 1.78609 26.3369 1.86401C26.3776 1.89783 26.411 1.9505 26.411 1.98108C26.411 2.01167 26.4584 2.08476 26.5165 2.14356C26.6525 2.28127 26.719 2.50066 26.72 2.81487C26.7207 2.99332 26.6982 3.09032 26.6421 3.15074C26.5986 3.19745 26.5505 3.26888 26.535 3.30954C26.5195 3.35016 26.4097 3.43628 26.2909 3.5009C26.1698 3.56687 25.9781 3.73588 25.854 3.88609C25.7324 4.03329 25.6165 4.15372 25.5965 4.15372C25.5765 4.15372 25.5601 4.21238 25.5601 4.28408C25.5601 4.37377 25.5184 4.44951 25.4266 4.52675C25.338 4.60132 25.2608 4.73768 25.1967 4.93263C25.1337 5.12479 25.0715 5.23541 25.0168 5.25279C24.9707 5.26739 24.9331 5.3051 24.9331 5.33662C24.9331 5.41956 24.808 5.65777 24.7306 5.72189C24.6942 5.75212 24.6644 5.79802 24.6644 5.82387C24.6644 5.84971 24.6361 5.90265 24.6014 5.94151C24.5668 5.98044 24.5316 6.09208 24.5231 6.1897C24.5077 6.3666 24.5085 6.36758 24.7764 6.49652C24.851 6.53243 24.9213 6.56837 24.9742 6.59723C25.0261 6.62552 25.0613 6.647 25.0675 6.65491C25.0917 6.6863 25.2466 6.77834 25.4257 6.86769C25.4873 6.89841 25.6284 6.9487 25.7392 6.97942C25.85 7.01014 26.0012 7.07777 26.0751 7.12967C26.149 7.18162 26.3035 7.24812 26.4185 7.27754C26.5334 7.30696 26.7042 7.38309 26.798 7.44674C26.8917 7.51037 27.0043 7.5531 27.048 7.54167C27.0917 7.53026 27.1387 7.53917 27.1525 7.56147C27.1663 7.58377 27.2256 7.60205 27.2843 7.60205C27.3429 7.60205 27.4034 7.6222 27.4186 7.64683C27.4338 7.67145 27.5108 7.69162 27.5896 7.69162C27.6844 7.69162 27.7519 7.72193 27.7889 7.78118C27.8196 7.83044 27.8717 7.87075 27.9046 7.87075C27.9376 7.87075 28.001 7.91105 28.0456 7.96032C28.0901 8.00957 28.1712 8.04988 28.2256 8.04988C28.28 8.04988 28.3726 8.08673 28.4314 8.13183C28.4549 8.14987 28.4824 8.16866 28.5096 8.18572C28.5425 8.2063 28.575 8.22435 28.5999 8.23552L28.6078 8.23892C28.6109 8.2402 28.6138 8.24135 28.6166 8.24236C28.6678 8.26107 28.6949 8.31827 28.6949 8.4077C28.6949 8.50877 28.7231 8.55728 28.8031 8.59369C28.9661 8.66799 28.9725 8.78774 28.8233 8.97551C28.7509 9.0666 28.7013 9.16621 28.713 9.19679C28.7248 9.22743 28.7084 9.27409 28.6765 9.30051C28.5975 9.36612 27.8801 9.35367 27.625 9.28224C27.5601 9.2641 27.4593 9.23964 27.3548 9.21629L27.3122 9.20686C27.2952 9.20314 27.2781 9.19947 27.2613 9.19589C27.2145 9.18594 27.1688 9.17667 27.1275 9.16875C26.9674 9.13811 26.7889 9.08353 26.7308 9.04753C26.6569 9.00159 26.6112 8.99611 26.5781 9.02921C26.545 9.0623 26.4962 9.05805 26.415 9.01501C26.3009 8.95456 26.1379 8.88232 25.8288 8.75531C25.6966 8.70099 25.4468 8.63664 25.269 8.61107C25.2152 8.60332 24.7148 8.37559 24.6196 8.31558C24.5827 8.29229 24.5222 8.2622 24.4853 8.24872C24.4719 8.24384 24.4398 8.22976 24.3957 8.20956C24.3176 8.17388 24.2018 8.11909 24.0848 8.06219C23.8623 7.95408 23.7455 7.91795 23.7337 7.95346C23.724 7.98275 23.6868 8.03587 23.6511 8.07151C23.6155 8.10716 23.5568 8.20699 23.5207 8.29333C23.4847 8.37967 23.3934 8.49598 23.3179 8.55177C23.2425 8.60758 23.1508 8.71627 23.1142 8.79334C23.0776 8.87041 23.0084 8.97565 22.9604 9.02719C22.9124 9.07875 22.8731 9.13208 22.8731 9.14565C22.8731 9.1693 22.6558 9.48905 22.4462 9.77405C22.3919 9.84794 22.3347 9.96228 22.3192 10.0281C22.3037 10.0939 22.2451 10.2048 22.189 10.2744C22.133 10.3441 22.0595 10.4555 22.0259 10.522C21.9361 10.6992 21.765 10.7427 21.4468 10.6691C21.3244 10.6407 21.2804 10.5966 21.2069 10.4282C21.1335 10.2598 21.1252 10.193 21.1625 10.0651C21.247 9.77431 21.3275 9.59555 21.4445 9.43813C21.5087 9.35197 21.5873 9.18067 21.6193 9.05751C21.6513 8.93436 21.7328 8.7198 21.8005 8.5807C21.831 8.51793 21.8618 8.44763 21.888 8.38238C21.9198 8.30304 21.9447 8.23116 21.9539 8.18938C21.9706 8.1132 22.0029 8.0394 22.0256 8.02534C22.0484 8.01132 22.067 7.97057 22.067 7.93479C22.067 7.89906 22.1055 7.78436 22.1527 7.67993C22.1998 7.57553 22.2476 7.38019 22.259 7.24583C22.2776 7.02443 22.2677 6.98985 22.1543 6.87637C22.0854 6.8075 21.9973 6.75116 21.9585 6.75116C21.9196 6.75116 21.8878 6.73328 21.8878 6.71148C21.8878 6.68967 21.8123 6.63602 21.7199 6.59226C21.6275 6.54851 21.431 6.3967 21.2833 6.25496C21.1355 6.11317 20.9608 5.9837 20.8952 5.96722C20.8243 5.9494 20.7555 5.88813 20.7257 5.81616C20.6981 5.74952 20.6019 5.65557 20.5118 5.60734C20.3724 5.53265 20.1814 5.3716 19.9108 5.10052C19.8775 5.06712 19.7746 4.96591 19.6822 4.87566C19.5899 4.78539 19.5136 4.67168 19.5127 4.62296C19.5118 4.57423 19.4823 4.48399 19.4471 4.42242C19.3618 4.27315 19.3632 3.97368 19.4497 3.85013C19.458 3.83826 19.4654 3.82595 19.4718 3.81369C19.478 3.80166 19.4833 3.78967 19.4873 3.77823C19.4983 3.74743 19.5009 3.72049 19.4924 3.70673C19.4641 3.66096 19.5367 3.49799 19.6243 3.4103C19.8184 3.21626 20.3217 3.15226 20.7587 3.26601C20.9522 3.31644 21.0359 3.37238 21.2175 3.57273C21.3397 3.70753 21.4397 3.84282 21.4398 3.87333C21.4401 3.95192 21.8626 4.40885 22.1315 4.62138C22.2561 4.71982 22.4461 4.89098 22.5538 5.00169C22.6633 5.11441 22.8008 5.20993 22.8661 5.21867C22.9303 5.22726 23.0085 5.25561 23.0399 5.28168C23.0496 5.28978 23.0583 5.29585 23.0657 5.29996C23.0792 5.30738 23.0887 5.30843 23.0938 5.30355C23.1009 5.29658 23.0988 5.27756 23.0858 5.24777C23.0796 5.23371 23.1098 5.2025 23.153 5.17836C23.1961 5.15422 23.2313 5.09766 23.2313 5.05266C23.2313 5.03043 23.2386 5.00424 23.2502 4.97981C23.2558 4.9679 23.2626 4.95641 23.27 4.946C23.2783 4.93444 23.2875 4.92421 23.2971 4.91619C23.3814 4.8462 23.5896 4.47485 23.5896 4.39438C23.5896 4.36052 23.6075 4.33285 23.6295 4.33285C23.6515 4.33285 23.701 4.25393 23.7396 4.15752C23.7782 4.0611 23.8302 3.96956 23.8552 3.95411C23.9355 3.90444 24.0486 3.6189 24.0244 3.52656C24.0116 3.47739 24.0205 3.43718 24.0443 3.43718C24.0681 3.43718 24.0777 3.42137 24.0658 3.40206C24.0539 3.38276 24.1016 3.32123 24.1719 3.26525C24.2422 3.20931 24.3428 3.08083 24.3955 2.97971C24.4482 2.87859 24.5907 2.69435 24.7122 2.57025C24.8337 2.4462 24.9331 2.31978 24.9331 2.28937C24.9331 2.25896 24.9684 2.22273 25.0115 2.20886C25.0546 2.19501 25.1604 2.12197 25.2466 2.04656Z" fill="#160042"/>
<path d="M2.29219 20.4913C2.1675 20.5575 2.00643 20.6671 1.93427 20.735C1.8147 20.8472 1.80167 20.8891 1.78754 21.2052L1.77202 21.5521L2.06162 21.8544C2.22086 22.0207 2.36006 22.1567 2.37086 22.1567C2.48641 22.1567 2.94999 22.27 3.0536 22.3236C3.47563 22.5419 6.21363 22.6223 6.61664 22.4283C6.6536 22.4105 6.87122 22.4076 7.1003 22.4219C7.32937 22.4361 7.53357 22.431 7.55404 22.4105C7.57455 22.39 7.80026 22.3443 8.05562 22.3088C8.58056 22.2359 8.67669 22.2122 8.67669 22.1558C8.67669 22.1057 8.96935 22.0229 9.14753 22.0226C9.43031 22.0221 9.84731 21.8173 10.0538 21.5776C10.1807 21.4302 10.0577 21.018 9.85466 20.9105C9.78228 20.8722 8.97928 20.833 8.81104 20.8596C8.77408 20.8655 8.55239 20.8727 8.31842 20.8757C8.0844 20.8787 7.85545 20.8991 7.80962 20.9211C7.75316 20.9481 7.68808 20.9384 7.60809 20.8912C7.53602 20.8487 7.40259 20.8248 7.266 20.8301C7.14285 20.8349 6.98624 20.8208 6.91797 20.7989C6.83654 20.7727 6.77339 20.776 6.7342 20.8085C6.70136 20.8358 6.57584 20.8564 6.45522 20.8543C6.33465 20.8521 6.20576 20.8521 6.16881 20.8542C6.16203 20.8546 6.15188 20.8548 6.13902 20.8549C6.1214 20.8549 6.09875 20.8546 6.07277 20.8541C6.03459 20.8533 5.98915 20.8519 5.94183 20.8501C5.91699 20.8491 5.89162 20.848 5.86652 20.8468C5.73715 20.8406 5.63141 20.8507 5.63141 20.8692C5.63141 20.9123 5.16428 20.9134 5.12134 20.8704C5.10354 20.8526 4.94399 20.8362 4.76678 20.8338C4.42391 20.8294 3.82191 20.6971 3.58479 20.5741C3.50594 20.5332 3.40137 20.4997 3.3523 20.4997C3.30327 20.4997 3.25049 20.4792 3.23496 20.4541C3.21943 20.429 3.13262 20.4108 3.04196 20.4136C2.95135 20.4164 2.79661 20.408 2.69808 20.3949C2.55883 20.3763 2.46844 20.3978 2.29219 20.4913Z" fill="#160042"/>
<path d="M27.7872 18.2659C27.5736 18.3328 25.8661 18.5582 25.5728 18.5582C25.4204 18.5582 25.2568 18.579 25.2093 18.6045C25.0864 18.6703 23.6264 18.6965 23.0401 18.6436C22.9222 18.6329 22.7755 18.6177 22.6272 18.6011C22.4344 18.5794 22.2388 18.5554 22.0996 18.5357C21.6504 18.4722 21.4959 18.4867 21.1592 18.6245C20.8872 18.7357 20.7757 19.0245 20.8603 19.3982C20.8871 19.5162 20.8876 19.5986 20.8616 19.6147C20.7398 19.69 21.0292 20.1232 21.2874 20.2522C21.4905 20.3536 21.5051 20.3541 24.1106 20.3462C24.256 20.3457 24.416 20.3234 24.4662 20.2965C24.5163 20.2697 24.6996 20.229 24.8735 20.206C25.742 20.0915 25.857 20.0679 26.0594 19.9629C26.1407 19.9208 26.1861 19.9186 26.2296 19.9547C26.2734 19.9911 26.3327 19.9854 26.4559 19.933C26.6711 19.8415 27.0566 19.7397 27.3347 19.7009C27.4553 19.6841 27.5863 19.6535 27.6258 19.6329C27.8132 19.535 28.3008 19.3195 28.3348 19.3195C28.3933 19.3195 28.75 18.9429 28.75 18.8812C28.75 18.8513 28.7702 18.8269 28.7948 18.8269C28.8629 18.8269 28.8488 18.7285 28.7522 18.5285L28.6648 18.3476L28.3055 18.3176C28.1079 18.3011 27.9206 18.2796 27.8891 18.2697C27.8748 18.2652 27.8574 18.2624 27.8405 18.2614C27.8203 18.2602 27.8006 18.2617 27.7872 18.2659Z" fill="#160042"/>
<path d="M29.6905 20.6239C29.6289 20.6485 29.5114 20.6561 29.4294 20.6408C29.3243 20.6211 29.2293 20.6395 29.1069 20.7033C29.0115 20.7531 28.8266 20.8066 28.6962 20.8222C28.5657 20.838 28.338 20.8864 28.1902 20.9299C27.462 21.1442 26.6003 21.3423 26.4049 21.3404C26.3589 21.3399 26.276 21.3693 26.2206 21.4056C26.1652 21.4418 26.0618 21.4673 25.9907 21.4621C25.9469 21.459 25.8927 21.4644 25.846 21.4752C25.8169 21.4819 25.7908 21.4907 25.7719 21.5008C25.6796 21.5503 25.3953 21.5636 24.0477 21.581C22.9935 21.5947 22.7462 21.6409 22.3974 21.8894L22.2025 22.0283L22.2329 22.2969C22.2496 22.4446 22.2796 22.5858 22.2994 22.6107C22.3068 22.6199 22.3155 22.6369 22.3243 22.6587C22.3394 22.6958 22.355 22.7464 22.3652 22.7945C22.3815 22.8707 22.4405 22.9998 22.4964 23.0814C22.6072 23.243 22.8724 23.3466 23.2416 23.3725C23.3525 23.3803 23.4987 23.401 23.5666 23.4184C23.6411 23.4376 23.7151 23.4294 23.7533 23.3976C23.7883 23.3686 23.9331 23.3483 24.0777 23.3522C24.2213 23.356 24.4865 23.3352 24.667 23.3059C24.7682 23.2894 24.8624 23.2778 24.9277 23.273C24.9788 23.2692 25.0123 23.2696 25.0177 23.2751C25.0301 23.2875 25.1142 23.2665 25.2046 23.2285C25.2949 23.1905 25.5163 23.1427 25.6964 23.1222C26.1121 23.0751 26.3476 23.0078 27.093 22.7233C27.3024 22.6434 27.5556 22.5641 27.6557 22.547C27.7558 22.5299 27.8863 22.4819 27.9456 22.4404C28.0049 22.3988 28.0916 22.3648 28.1382 22.3648C28.264 22.3648 28.6461 22.2367 28.9561 22.0906C29.1063 22.0197 29.2447 21.9618 29.2635 21.9618C29.2824 21.9618 29.3609 21.8955 29.4381 21.8145C29.5153 21.7335 29.6541 21.6176 29.7465 21.557C29.8389 21.4963 29.9253 21.4133 29.9386 21.3724C29.9518 21.3315 30.014 21.2644 30.0766 21.2233C30.1822 21.1541 30.1849 21.1445 30.1127 21.0917C30.0551 21.0495 30.0421 20.9988 30.0626 20.8962C30.0847 20.7855 30.0734 20.7523 30.0065 20.731C29.9604 20.7164 29.9114 20.675 29.8975 20.639C29.8688 20.5639 29.845 20.5622 29.6905 20.6239Z" fill="#160042"/>
</svg>
