<svg width="48" height="48" viewBox="0 0 48 48" fill="none" xmlns="http://www.w3.org/2000/svg">
<path d="M23.472 12.6349C23.4218 12.6701 23.3431 12.786 23.297 12.8924C23.2509 12.9989 23.1755 13.1289 23.1294 13.1813C23.011 13.3156 22.9227 13.6872 22.8911 14.1832C22.8836 14.3002 22.8774 14.4141 22.8733 14.5034C22.8692 14.5927 22.8672 14.6574 22.8684 14.6759C22.8796 14.8488 22.8662 15.0068 22.8359 15.061C22.8176 15.0937 22.817 15.3076 22.8345 15.5363C22.8644 15.9274 22.848 16.2089 22.7894 16.3098C22.7881 16.3119 22.787 16.3145 22.7859 16.3176C22.7809 16.3312 22.7772 16.3536 22.7752 16.3806C22.7726 16.4163 22.7728 16.46 22.7765 16.5024C22.7835 16.584 22.7697 16.675 22.7458 16.7046C22.7206 16.7358 22.7091 17.0212 22.7183 17.3853C22.7369 18.1183 22.738 18.2385 22.729 18.4937C22.7193 18.7687 22.7777 19.7884 22.8272 20.2066C22.8339 20.2635 22.8404 20.3241 22.8463 20.3839C22.8501 20.4219 22.8536 20.4596 22.8568 20.4957C22.8659 20.6 22.8722 20.692 22.8733 20.744C22.8753 20.8426 22.8861 21.0844 22.8971 21.2814C22.9465 22.1628 22.96 22.4834 23.0191 24.1812C23.0313 24.5319 23.021 24.7203 22.9881 24.7461C22.9153 24.8033 22.211 24.8513 22.1801 24.8012C22.1506 24.7536 21.2611 24.7629 21.1821 24.8117C21.154 24.8291 21.054 24.8141 20.96 24.7784C20.7739 24.7077 20.1096 24.6514 18.8035 24.5955C18.4996 24.5826 18.2137 24.552 18.1683 24.5277C18.1228 24.5033 18.0071 24.4835 17.911 24.4835C17.815 24.4835 17.7212 24.4683 17.7026 24.4499C17.6839 24.4314 17.5042 24.415 17.3032 24.4134C17.1022 24.4118 16.8471 24.3828 16.7362 24.3489C16.6254 24.315 16.3735 24.2827 16.1764 24.277C15.6202 24.261 15.0491 24.1931 14.9785 24.1345C14.9433 24.1053 14.755 24.0772 14.5602 24.0723C14.3654 24.0672 14.1757 24.0484 14.1388 24.0304C14.1018 24.0124 13.9406 23.9638 13.7805 23.9223C13.6204 23.8808 13.4683 23.8298 13.4425 23.8089C13.4167 23.7881 13.3196 23.7627 13.2267 23.7524C13.1337 23.7422 13.0349 23.711 13.0071 23.6832C12.9793 23.6554 12.9142 23.6326 12.8625 23.6326C12.8107 23.6326 12.7492 23.6134 12.7258 23.5899C12.6842 23.5484 12.4145 23.5174 12.3251 23.5439C12.3223 23.5447 12.3193 23.5453 12.3159 23.5458C12.3132 23.5461 12.3103 23.5463 12.3072 23.5464L12.3028 23.5465C12.2929 23.5464 12.2815 23.5453 12.2695 23.5432C12.2639 23.5423 12.2582 23.5411 12.2525 23.5398L12.2462 23.5382L12.2385 23.5361C12.2269 23.5328 12.2153 23.5287 12.2046 23.524C12.163 23.5057 12.0172 23.5139 11.8806 23.5423C11.744 23.5707 11.6118 23.5812 11.5868 23.5659C11.5099 23.5182 11.2683 23.6922 11.2062 23.8401C11.0934 24.1085 11.0996 24.6367 11.2171 24.7672C11.2652 24.8205 11.3413 24.9284 11.3862 25.007C11.4826 25.1755 11.713 25.2717 12.216 25.3534C12.4024 25.3837 12.5815 25.4249 12.614 25.445C12.6465 25.4651 12.8064 25.4991 12.9693 25.5206C13.1322 25.5421 13.3353 25.5689 13.4205 25.5802C13.5059 25.5915 13.6066 25.6132 13.6445 25.6283C13.6823 25.6434 13.7631 25.6653 13.8239 25.6769C13.8847 25.6884 13.9552 25.7142 13.9806 25.734C14.0061 25.7538 14.1981 25.7827 14.4075 25.7982C14.6168 25.8137 14.9393 25.8553 15.124 25.8906C15.3088 25.9259 15.5909 25.9596 15.751 25.9655C15.9111 25.9714 16.154 26.0019 16.2908 26.0334C16.4275 26.0648 16.7275 26.1022 16.9574 26.1166C17.1873 26.131 17.3915 26.1527 17.4112 26.1648C17.4581 26.1938 18.8674 26.248 19.2545 26.2357C19.4204 26.2305 19.6322 26.2466 19.7251 26.2717C19.8181 26.2967 20.1661 26.328 20.4984 26.3412C20.8307 26.3543 21.3344 26.376 21.6176 26.3893C21.9009 26.4026 22.3469 26.4124 22.6089 26.4111L22.6258 26.411C22.9103 26.4096 23.0784 26.4088 23.1791 26.4907C23.3245 26.6091 23.3294 26.9 23.3415 27.6109L23.342 27.6407C23.3491 28.0594 23.3793 28.5028 23.4092 28.6259C23.4391 28.7491 23.4619 28.9405 23.4598 29.0514C23.4577 29.1622 23.4863 29.4846 23.5235 29.7679C23.5938 30.3027 23.6541 31.0087 23.7041 31.8798C23.7202 32.1592 23.7523 32.4242 23.7756 32.4687C23.7989 32.5131 23.8177 32.7449 23.8175 32.9837C23.8169 33.544 23.8291 33.6885 23.8976 33.9291C23.9285 34.0379 23.9626 34.2293 23.9732 34.3545C24.014 34.8328 24.139 34.9273 24.4787 34.7364C24.6421 34.6445 24.6829 34.5708 24.8114 34.1343C24.8404 34.0358 24.9081 33.9196 24.9618 33.8761C25.045 33.8088 25.0602 33.7486 25.0643 33.473C25.0668 33.2948 25.0709 33.1088 25.0733 33.0595C25.1034 32.4293 25.0455 30.6752 24.9859 30.413C24.963 30.3121 24.9401 30.0411 24.935 29.8107C24.93 29.5803 24.9148 29.3738 24.9013 29.352C24.8784 29.315 24.853 28.9448 24.8205 28.1781C24.8162 28.0781 24.8046 27.9208 24.7899 27.7582C24.7793 27.6406 24.767 27.5202 24.7549 27.4168C24.6732 26.7167 24.6682 26.6173 24.7103 26.5386C24.755 26.4552 25.2149 26.4152 26.5045 26.3824C26.9079 26.3722 27.3589 26.353 27.5067 26.3398C27.6544 26.3266 27.9366 26.3102 28.1336 26.3033C28.7719 26.2809 30.4079 26.1377 30.7759 26.0718C30.9729 26.0366 31.3155 25.9863 31.5372 25.96C32.0847 25.8949 32.122 25.8891 32.1684 25.8615C32.1907 25.8483 32.4187 25.8243 32.6751 25.8081C32.9314 25.792 33.1631 25.765 33.1901 25.7482C33.2534 25.7087 33.6884 25.6464 33.8817 25.6491C33.9643 25.6503 34.0563 25.6309 34.0861 25.6061C34.1161 25.5813 34.2601 25.5483 34.4063 25.5328C34.5564 25.5168 34.7259 25.4667 34.7958 25.4177C34.8639 25.3698 34.9445 25.3362 34.9749 25.3428C35.0054 25.3495 35.0848 25.2999 35.1515 25.2327C35.251 25.1321 35.3121 25.1104 35.4956 25.1104C35.6183 25.1104 35.7754 25.0886 35.8447 25.0619C35.914 25.0352 36.0577 25.009 36.1639 25.0036C36.3163 24.9958 36.3852 24.9636 36.4909 24.8506C36.5841 24.7508 36.6656 24.7074 36.7597 24.7074C36.8339 24.7074 36.9387 24.6832 36.9925 24.6536C37.0463 24.6241 37.22 24.586 37.3784 24.569C37.7025 24.5342 37.7845 24.4659 37.7845 24.2307C37.7845 24.0602 37.6989 23.8487 37.6437 23.8829C37.6227 23.8959 37.5607 23.8751 37.5059 23.8367C37.366 23.7387 37.2784 23.7495 37.1659 23.8789C37.0594 24.0013 36.9141 24.0208 36.7309 23.9374C36.638 23.895 36.6063 23.8959 36.578 23.9418C36.5456 23.9942 36.5024 24.0008 36.2507 23.9915C35.9952 23.982 35.72 24.0067 35.6987 24.041C35.6852 24.0628 35.6269 24.0689 35.5692 24.0544C35.5095 24.0394 35.4189 24.0568 35.3592 24.0948C35.2839 24.1427 35.133 24.1607 34.8252 24.1585C34.5892 24.1567 34.3776 24.1654 34.3549 24.1776C34.3323 24.1899 34.2132 24.2051 34.0902 24.2114C33.9673 24.2177 33.8489 24.2338 33.8271 24.2473C33.8234 24.2496 33.8171 24.252 33.8086 24.2545C33.7923 24.2593 33.768 24.2644 33.7386 24.2693C33.6939 24.2767 33.6376 24.2836 33.5805 24.2882C33.2902 24.3112 33.2 24.3264 33.1429 24.3617C33.1157 24.3785 33.0052 24.3843 32.8975 24.3746C32.7712 24.3631 32.6634 24.3812 32.5944 24.4253C32.5194 24.4733 32.4289 24.4859 32.2924 24.4672C32.1852 24.4525 31.9412 24.4692 31.7502 24.5044C31.5591 24.5396 31.1509 24.5798 30.8431 24.5938C30.0539 24.6296 29.682 24.6657 29.6551 24.7093C29.6423 24.7299 29.5689 24.7249 29.4921 24.6981C29.3881 24.6618 29.3133 24.6634 29.2008 24.7041C29.1174 24.7342 28.973 24.7533 28.8797 24.7466C28.7865 24.7398 28.6445 24.7616 28.5642 24.7948C28.4529 24.8409 28.3702 24.8443 28.217 24.8093C27.984 24.756 27.3395 24.7709 27.1074 24.835C26.9225 24.886 25.8256 24.8508 25.7623 24.7918C25.7015 24.7351 25.5274 24.7429 25.4247 24.807C25.3587 24.8483 25.3242 24.8492 25.2855 24.8105C25.2483 24.7733 25.2052 24.7722 25.1295 24.8068C25.0536 24.8413 24.9704 24.8391 24.8261 24.7987C24.6285 24.7434 24.6271 24.7417 24.5972 24.5018C24.5806 24.369 24.5807 24.2174 24.5974 24.1648C24.6187 24.0974 24.6121 24.0788 24.575 24.1018C24.5359 24.126 24.5279 24.0682 24.5442 23.8796C24.5453 23.867 24.5465 23.8546 24.5477 23.8424C24.5487 23.8322 24.5497 23.8222 24.5508 23.8123C24.5533 23.7897 24.556 23.768 24.5587 23.7477L24.5616 23.7267C24.5716 23.6578 24.5825 23.6085 24.5906 23.6004C24.5986 23.5924 24.5974 23.5699 24.5889 23.5419C24.5875 23.5373 24.5859 23.5326 24.5842 23.5278C24.581 23.5191 24.5772 23.5101 24.573 23.501C24.5699 23.4944 24.5665 23.4878 24.5629 23.4812C24.4983 23.3636 24.4826 23.216 24.462 22.5354C24.4327 21.5638 24.3913 20.6128 24.3704 20.4305C24.3591 20.332 24.3403 20.0297 24.3285 19.7588C24.3167 19.4878 24.2861 19.115 24.2604 18.9303C24.2549 18.8908 24.2497 18.8509 24.2449 18.8122C24.2418 18.7874 24.2389 18.763 24.2362 18.7395L24.2335 18.7165L24.2323 18.7054C24.2217 18.6101 24.2153 18.5335 24.2159 18.5049C24.2277 17.9979 24.1979 16.9909 24.1489 16.2433C24.1079 15.6189 24.1024 15.2503 24.1316 15.0911C24.1582 14.9455 24.1587 14.8269 24.1326 14.7776C24.1096 14.7339 24.1001 14.4665 24.1114 14.1832C24.1423 13.4115 24.1407 13.3949 24.0173 13.1417C23.7294 12.5515 23.67 12.4963 23.472 12.6349Z" fill="#160042"/>
<path d="M15.0546 13.1507C15.0312 13.174 14.8911 13.2196 14.7434 13.252C14.5182 13.3014 14.4636 13.3326 14.4061 13.4448C14.3685 13.5184 14.3037 13.6293 14.2623 13.6913C14.2189 13.7562 14.1771 13.9332 14.1638 14.1084C14.151 14.2758 14.13 14.43 14.117 14.451C14.104 14.472 14.1133 14.5416 14.1376 14.6057C14.1694 14.6891 14.1622 14.8069 14.1126 15.0211C14.0643 15.2294 14.0566 15.3479 14.0872 15.4122C14.1115 15.4629 14.1557 15.7179 14.1855 15.9788C14.228 16.3495 14.228 16.4891 14.1858 16.617L14.1318 16.7807L13.6986 16.7877C13.4604 16.7915 13.2086 16.7972 13.139 16.8003C13.1084 16.8017 13.079 16.8009 13.055 16.7985C13.0243 16.7953 13.0023 16.7895 12.9977 16.7822C12.9896 16.769 12.5977 16.7606 12.1268 16.7635C11.6558 16.7664 11.2613 16.7537 11.2499 16.7354C11.2387 16.7171 11.1635 16.7157 11.0831 16.7323C11.0026 16.7489 10.8461 16.7467 10.7352 16.7274C10.6244 16.708 10.4128 16.6805 10.265 16.6662L9.99631 16.6402L9.70521 16.8735C9.40419 17.1149 9.29521 17.2234 9.1794 17.3972C9.08581 17.5376 9.17743 17.8625 9.37717 18.0987C9.45908 18.1954 9.52608 18.3065 9.52608 18.3454C9.52608 18.4123 9.67513 18.5373 9.77239 18.5521C9.79701 18.5558 9.9381 18.5444 10.0859 18.5268C10.2337 18.5092 10.3848 18.5097 10.4218 18.5279C10.4587 18.5461 10.6501 18.5442 10.8472 18.5237C11.3033 18.4763 12.0278 18.4614 12.0651 18.4987C12.1225 18.556 12.6665 18.5267 12.797 18.4592C12.8301 18.4421 12.8625 18.4265 12.8893 18.4146C12.9081 18.4063 12.9241 18.3998 12.9354 18.3959C12.9397 18.3945 12.9434 18.3934 12.9462 18.3927C12.9485 18.3922 12.9503 18.392 12.9516 18.392C12.9641 18.3925 12.9794 18.3903 12.9856 18.3872C13.0072 18.3762 13.7612 18.3467 14.0431 18.3459C14.4538 18.3446 14.4746 18.3855 14.5208 19.2886C14.5467 19.7956 14.548 19.8061 14.6477 20.3403C14.6844 20.537 14.6985 20.7184 14.679 20.7434C14.6352 20.7997 14.6348 20.9456 14.6785 20.9456C14.7243 20.9456 14.8519 21.354 14.8848 21.6058C14.9 21.723 14.9324 21.8575 14.9567 21.9047C14.981 21.952 15.0076 22.0597 15.0157 22.1441C15.0247 22.2364 15.0783 22.3448 15.1504 22.4164C15.2163 22.4819 15.317 22.6091 15.3742 22.6992C15.4923 22.8851 15.7212 22.9843 15.9276 22.939C16 22.9231 16.1007 22.9323 16.1514 22.9594C16.2231 22.9978 16.2436 22.9954 16.2436 22.9488C16.2436 22.9159 16.3041 22.8065 16.3782 22.7059C16.5921 22.415 16.6398 22.2274 16.6038 21.8182C16.5865 21.6215 16.5464 21.4122 16.5147 21.3531C16.4783 21.285 16.4672 21.1729 16.4844 21.0472C16.4994 20.938 16.4912 20.8108 16.4664 20.7644C16.4416 20.7179 16.4128 20.5432 16.4025 20.3761C16.3922 20.209 16.36 19.8808 16.331 19.6468C16.302 19.4128 16.2721 19.0044 16.2646 18.7392L16.2511 18.257L16.3705 18.1955C16.4454 18.1571 16.7932 18.1158 17.3027 18.085C17.7497 18.058 18.1689 18.0155 18.2342 17.9907C18.2995 17.9659 18.4576 17.9463 18.5858 17.9472C19.084 17.9507 19.7093 17.8626 19.954 17.7543C20.1038 17.6881 20.2485 17.6663 20.5248 17.6683C20.8648 17.6709 20.9096 17.6605 21.0751 17.5406C21.206 17.4458 21.2689 17.3594 21.3051 17.225C21.3492 17.061 21.3425 17.0136 21.2455 16.8088L21.1361 16.5777L20.544 16.5915C20.2184 16.5991 19.9287 16.5871 19.9003 16.5649C19.8491 16.5249 18.99 16.5312 18.2589 16.577C17.6861 16.6129 16.1878 16.6125 16.095 16.5765C16.02 16.5473 16.0151 16.4917 16.0342 15.8679C16.0455 15.4955 16.0759 14.9994 16.1019 14.7654C16.1296 14.5157 16.1333 14.2752 16.1109 14.1832C16.0898 14.097 16.0595 13.9307 16.0434 13.8135C16.0095 13.5668 15.8783 13.4049 15.5679 13.2265C15.3599 13.1069 15.1324 13.0734 15.0546 13.1507Z" fill="#160042"/>
<path d="M34.2466 14.0466C34.3328 13.9711 34.4614 13.8849 34.5324 13.8549C34.7095 13.78 35.243 13.7861 35.3369 13.864C35.3776 13.8978 35.411 13.9505 35.411 13.9811C35.411 14.0117 35.4584 14.0848 35.5165 14.1436C35.6525 14.2813 35.719 14.5007 35.72 14.8149C35.7207 14.9933 35.6982 15.0903 35.6421 15.1507C35.5986 15.1975 35.5505 15.2689 35.535 15.3095C35.5195 15.3502 35.4097 15.4363 35.2909 15.5009C35.1698 15.5669 34.9781 15.7359 34.854 15.8861C34.7324 16.0333 34.6165 16.1537 34.5965 16.1537C34.5765 16.1537 34.5601 16.2124 34.5601 16.2841C34.5601 16.3738 34.5184 16.4495 34.4266 16.5268C34.338 16.6013 34.2608 16.7377 34.1967 16.9326C34.1337 17.1248 34.0715 17.2354 34.0168 17.2528C33.9707 17.2674 33.9331 17.3051 33.9331 17.3366C33.9331 17.4196 33.808 17.6578 33.7306 17.7219C33.6942 17.7521 33.6644 17.798 33.6644 17.8239C33.6644 17.8497 33.6361 17.9026 33.6014 17.9415C33.5668 17.9804 33.5315 18.0921 33.5231 18.1897C33.5077 18.3666 33.5085 18.3676 33.7764 18.4965C33.851 18.5324 33.9213 18.5684 33.9742 18.5972C34.0261 18.6255 34.0613 18.647 34.0675 18.6549C34.0917 18.6863 34.2466 18.7783 34.4257 18.8677C34.4873 18.8984 34.6284 18.9487 34.7392 18.9794C34.85 19.0101 35.0012 19.0778 35.0751 19.1297C35.149 19.1816 35.3035 19.2481 35.4184 19.2775C35.5334 19.307 35.7042 19.3831 35.798 19.4467C35.8917 19.5104 36.0043 19.5531 36.048 19.5417C36.0917 19.5303 36.1387 19.5392 36.1525 19.5615C36.1663 19.5838 36.2256 19.602 36.2843 19.602C36.3429 19.602 36.4034 19.6222 36.4186 19.6468C36.4338 19.6715 36.5107 19.6916 36.5896 19.6916C36.6844 19.6916 36.7519 19.7219 36.7889 19.7812C36.8196 19.8304 36.8717 19.8707 36.9046 19.8707C36.9376 19.8707 37.001 19.911 37.0456 19.9603C37.0901 20.0096 37.1712 20.0499 37.2256 20.0499C37.28 20.0499 37.3726 20.0867 37.4314 20.1318C37.4549 20.1499 37.4824 20.1687 37.5096 20.1857C37.5425 20.2063 37.575 20.2243 37.5999 20.2355L37.6078 20.2389C37.6109 20.2402 37.6138 20.2414 37.6166 20.2424C37.6678 20.2611 37.6949 20.3183 37.6949 20.4077C37.6949 20.5088 37.7231 20.5573 37.8031 20.5937C37.9661 20.668 37.9725 20.7877 37.8233 20.9755C37.7509 21.0666 37.7013 21.1662 37.713 21.1968C37.7248 21.2274 37.7084 21.2741 37.6765 21.3005C37.5975 21.3661 36.8801 21.3537 36.625 21.2822C36.5601 21.2641 36.4593 21.2396 36.3548 21.2163L36.3122 21.2069C36.2952 21.2031 36.2781 21.1995 36.2613 21.1959C36.2145 21.1859 36.1688 21.1767 36.1275 21.1688C35.9674 21.1381 35.7889 21.0835 35.7308 21.0475C35.6569 21.0016 35.6112 20.9961 35.5781 21.0292C35.545 21.0623 35.4962 21.058 35.415 21.015C35.3008 20.9546 35.1379 20.8823 34.8288 20.7553C34.6966 20.701 34.4468 20.6366 34.269 20.6111C34.2152 20.6033 33.7148 20.3756 33.6196 20.3156C33.5827 20.2923 33.5222 20.2622 33.4853 20.2487C33.4719 20.2438 33.4398 20.2298 33.3957 20.2096C33.3176 20.1739 33.2018 20.1191 33.0848 20.0622C32.8623 19.9541 32.7455 19.9179 32.7337 19.9535C32.724 19.9828 32.6868 20.0359 32.6511 20.0715C32.6155 20.1072 32.5568 20.207 32.5207 20.2933C32.4847 20.3797 32.3934 20.496 32.3179 20.5518C32.2424 20.6076 32.1508 20.7163 32.1142 20.7933C32.0776 20.8704 32.0084 20.9757 31.9604 21.0272C31.9124 21.0787 31.8731 21.1321 31.8731 21.1456C31.8731 21.1693 31.6558 21.489 31.4462 21.7741C31.3919 21.8479 31.3347 21.9623 31.3192 22.0281C31.3037 22.0939 31.2451 22.2048 31.189 22.2744C31.133 22.3441 31.0595 22.4555 31.0259 22.522C30.9361 22.6992 30.765 22.7427 30.4468 22.6691C30.3244 22.6407 30.2804 22.5966 30.2069 22.4282C30.1335 22.2598 30.1252 22.193 30.1625 22.0651C30.247 21.7743 30.3275 21.5955 30.4445 21.4381C30.5087 21.352 30.5873 21.1807 30.6193 21.0575C30.6513 20.9344 30.7328 20.7198 30.8005 20.5807C30.831 20.5179 30.8618 20.4476 30.888 20.3824C30.9198 20.303 30.9447 20.2312 30.9539 20.1894C30.9706 20.1132 31.0029 20.0394 31.0256 20.0253C31.0484 20.0113 31.067 19.9706 31.067 19.9348C31.067 19.8991 31.1055 19.7844 31.1527 19.6799C31.1998 19.5755 31.2476 19.3802 31.259 19.2458C31.2776 19.0244 31.2677 18.9898 31.1543 18.8764C31.0854 18.8075 30.9973 18.7512 30.9585 18.7512C30.9196 18.7512 30.8878 18.7333 30.8878 18.7115C30.8878 18.6897 30.8123 18.636 30.7199 18.5923C30.6275 18.5485 30.431 18.3967 30.2833 18.255C30.1355 18.1132 29.9608 17.9837 29.8952 17.9672C29.8243 17.9494 29.7555 17.8881 29.7257 17.8162C29.6981 17.7495 29.6019 17.6556 29.5118 17.6073C29.3724 17.5326 29.1814 17.3716 28.9108 17.1005C28.8775 17.0671 28.7746 16.9659 28.6822 16.8757C28.5899 16.7854 28.5136 16.6717 28.5127 16.623C28.5118 16.5742 28.4823 16.484 28.4471 16.4224C28.3618 16.2732 28.3632 15.9737 28.4497 15.8501C28.458 15.8383 28.4654 15.826 28.4718 15.8137C28.478 15.8017 28.4833 15.7897 28.4873 15.7782C28.4983 15.7474 28.5009 15.7205 28.4924 15.7067C28.4641 15.661 28.5367 15.498 28.6243 15.4103C28.8184 15.2163 29.3217 15.1523 29.7587 15.266C29.9522 15.3164 30.0359 15.3724 30.2175 15.5727C30.3397 15.7075 30.4397 15.8428 30.4398 15.8733C30.4401 15.9519 30.8626 16.4088 31.1315 16.6214C31.2561 16.7198 31.4461 16.891 31.5538 17.0017C31.6633 17.1144 31.8008 17.2099 31.8661 17.2187C31.9303 17.2273 32.0085 17.2556 32.0399 17.2817C32.0496 17.2898 32.0583 17.2958 32.0657 17.3C32.0792 17.3074 32.0887 17.3084 32.0938 17.3035C32.1009 17.2966 32.0988 17.2776 32.0858 17.2478C32.0796 17.2337 32.1098 17.2025 32.153 17.1784C32.1961 17.1542 32.2313 17.0977 32.2313 17.0527C32.2313 17.0304 32.2386 17.0042 32.2502 16.9798C32.2558 16.9679 32.2626 16.9564 32.27 16.946C32.2783 16.9344 32.2875 16.9242 32.2971 16.9162C32.3814 16.8462 32.5896 16.4749 32.5896 16.3944C32.5896 16.3605 32.6075 16.3328 32.6295 16.3328C32.6515 16.3328 32.701 16.2539 32.7396 16.1575C32.7782 16.0611 32.8302 15.9696 32.8552 15.9541C32.9355 15.9044 33.0486 15.6189 33.0244 15.5266C33.0116 15.4774 33.0205 15.4372 33.0443 15.4372C33.0681 15.4372 33.0777 15.4214 33.0658 15.4021C33.0539 15.3828 33.1016 15.3212 33.1719 15.2652C33.2422 15.2093 33.3428 15.0808 33.3955 14.9797C33.4482 14.8786 33.5907 14.6943 33.7122 14.5703C33.8337 14.4462 33.9331 14.3198 33.9331 14.2894C33.9331 14.259 33.9684 14.2227 34.0115 14.2089C34.0546 14.195 34.1604 14.122 34.2466 14.0466Z" fill="#160042"/>
<path d="M11.2922 32.4913C11.1675 32.5575 11.0064 32.6671 10.9343 32.735C10.8147 32.8472 10.8017 32.8891 10.7875 33.2052L10.772 33.5521L11.0616 33.8544C11.2209 34.0207 11.3601 34.1567 11.3709 34.1567C11.4864 34.1567 11.95 34.27 12.0536 34.3236C12.4756 34.5419 15.2136 34.6223 15.6166 34.4283C15.6536 34.4105 15.8712 34.4076 16.1003 34.4219C16.3294 34.4361 16.5336 34.431 16.554 34.4105C16.5745 34.39 16.8003 34.3443 17.0556 34.3088C17.5806 34.2359 17.6767 34.2122 17.6767 34.1558C17.6767 34.1057 17.9694 34.0229 18.1475 34.0226C18.4303 34.0221 18.8473 33.8173 19.0538 33.5776C19.1807 33.4302 19.0577 33.018 18.8547 32.9105C18.7823 32.8722 17.9793 32.833 17.811 32.8596C17.7741 32.8655 17.5524 32.8727 17.3184 32.8757C17.0844 32.8787 16.8554 32.8991 16.8096 32.9211C16.7532 32.9481 16.6881 32.9384 16.6081 32.8912C16.536 32.8487 16.4026 32.8248 16.266 32.8301C16.1428 32.8349 15.9862 32.8208 15.918 32.7989C15.8365 32.7727 15.7734 32.776 15.7342 32.8085C15.7014 32.8358 15.5758 32.8564 15.4552 32.8543C15.3346 32.8521 15.2058 32.8521 15.1688 32.8542C15.162 32.8546 15.1519 32.8548 15.139 32.8549C15.1214 32.8549 15.0987 32.8546 15.0728 32.8541C15.0346 32.8533 14.9891 32.8519 14.9418 32.8501C14.917 32.8491 14.8916 32.848 14.8665 32.8468C14.7372 32.8406 14.6314 32.8507 14.6314 32.8692C14.6314 32.9123 14.1643 32.9134 14.1213 32.8704C14.1035 32.8526 13.944 32.8362 13.7668 32.8338C13.4239 32.8294 12.8219 32.6971 12.5848 32.5741C12.5059 32.5332 12.4014 32.4997 12.3523 32.4997C12.3033 32.4997 12.2505 32.4792 12.235 32.4541C12.2194 32.429 12.1326 32.4108 12.042 32.4136C11.9513 32.4164 11.7966 32.408 11.6981 32.3949C11.5588 32.3763 11.4684 32.3978 11.2922 32.4913Z" fill="#160042"/>
<path d="M36.7871 30.2659C36.5736 30.3328 34.8661 30.5582 34.5728 30.5582C34.4204 30.5582 34.2568 30.579 34.2093 30.6045C34.0864 30.6703 32.6264 30.6965 32.0401 30.6436C31.9222 30.6329 31.7755 30.6177 31.6272 30.6011C31.4344 30.5794 31.2388 30.5554 31.0996 30.5357C30.6504 30.4722 30.4959 30.4867 30.1592 30.6245C29.8872 30.7357 29.7757 31.0245 29.8603 31.3982C29.8871 31.5162 29.8875 31.5986 29.8616 31.6147C29.7398 31.69 30.0292 32.1232 30.2874 32.2522C30.4905 32.3536 30.5051 32.3541 33.1106 32.3462C33.256 32.3457 33.416 32.3234 33.4662 32.2965C33.5163 32.2697 33.6996 32.229 33.8735 32.206C34.742 32.0915 34.857 32.0679 35.0594 31.9629C35.1407 31.9208 35.1861 31.9186 35.2296 31.9547C35.2734 31.9911 35.3327 31.9854 35.4559 31.933C35.6711 31.8415 36.0566 31.7397 36.3347 31.7009C36.4553 31.6841 36.5863 31.6535 36.6258 31.6329C36.8132 31.535 37.3008 31.3195 37.3348 31.3195C37.3933 31.3195 37.75 30.9429 37.75 30.8812C37.75 30.8513 37.7702 30.8269 37.7948 30.8269C37.8629 30.8269 37.8488 30.7285 37.7522 30.5285L37.6648 30.3476L37.3055 30.3176C37.1079 30.3011 36.9206 30.2796 36.8891 30.2697C36.8747 30.2652 36.8574 30.2624 36.8405 30.2614C36.8203 30.2602 36.8006 30.2617 36.7871 30.2659Z" fill="#160042"/>
<path d="M38.6904 32.6239C38.6289 32.6485 38.5114 32.6561 38.4294 32.6408C38.3243 32.6211 38.2293 32.6395 38.1069 32.7033C38.0115 32.7531 37.8266 32.8066 37.6962 32.8222C37.5657 32.838 37.338 32.8864 37.1902 32.9299C36.462 33.1442 35.6003 33.3423 35.4049 33.3404C35.3589 33.3399 35.276 33.3693 35.2206 33.4056C35.1652 33.4418 35.0618 33.4673 34.9907 33.4621C34.9469 33.459 34.8927 33.4644 34.846 33.4752C34.8169 33.4819 34.7908 33.4907 34.7719 33.5008C34.6796 33.5503 34.3953 33.5636 33.0477 33.581C31.9935 33.5947 31.7462 33.6409 31.3974 33.8894L31.2025 34.0283L31.2329 34.2969C31.2496 34.4446 31.2796 34.5858 31.2994 34.6107C31.3068 34.6199 31.3155 34.6369 31.3243 34.6587C31.3394 34.6958 31.355 34.7464 31.3652 34.7945C31.3815 34.8707 31.4405 34.9998 31.4964 35.0814C31.6072 35.243 31.8724 35.3466 32.2416 35.3725C32.3525 35.3803 32.4987 35.401 32.5666 35.4184C32.6411 35.4376 32.7151 35.4294 32.7533 35.3976C32.7883 35.3686 32.9331 35.3483 33.0777 35.3522C33.2213 35.356 33.4865 35.3352 33.667 35.3059C33.7682 35.2894 33.8624 35.2778 33.9277 35.273C33.9788 35.2692 34.0123 35.2696 34.0177 35.2751C34.0301 35.2875 34.1142 35.2665 34.2046 35.2285C34.2949 35.1905 34.5163 35.1427 34.6964 35.1222C35.1121 35.0751 35.3476 35.0078 36.093 34.7233C36.3024 34.6434 36.5556 34.5641 36.6557 34.547C36.7558 34.5299 36.8862 34.4819 36.9456 34.4404C37.0049 34.3988 37.0916 34.3648 37.1382 34.3648C37.264 34.3648 37.6461 34.2367 37.9561 34.0906C38.1063 34.0197 38.2447 33.9618 38.2635 33.9618C38.2824 33.9618 38.3609 33.8955 38.4381 33.8145C38.5153 33.7335 38.6541 33.6176 38.7465 33.557C38.8389 33.4963 38.9253 33.4133 38.9385 33.3724C38.9518 33.3315 39.0139 33.2644 39.0766 33.2233C39.1822 33.1541 39.1849 33.1445 39.1127 33.0917C39.0551 33.0495 39.0421 32.9988 39.0626 32.8962C39.0847 32.7855 39.0734 32.7523 39.0065 32.731C38.9604 32.7164 38.9113 32.675 38.8975 32.639C38.8688 32.5639 38.845 32.5622 38.6904 32.6239Z" fill="#160042"/>
</svg>
