<svg width="80" height="80" viewBox="0 0 80 80" fill="none" xmlns="http://www.w3.org/2000/svg">
<path d="M44.8844 26.6037C44.9417 26.5821 45.0251 26.5282 45.0697 26.484C45.2165 26.339 45.9034 26.3821 46.2509 26.5583C46.8689 26.8714 46.9065 27.5216 46.3719 28.6487C46.1954 29.0208 46.0158 29.3668 45.9728 29.4175C45.9298 29.4683 45.8315 29.6897 45.7543 29.9096C45.677 30.1295 45.5811 30.3509 45.5412 30.4017C45.5012 30.4524 45.4522 30.5398 45.4324 30.596C45.4126 30.6521 45.2839 30.8833 45.1463 31.1097C45.0088 31.3361 44.8962 31.5472 44.8962 31.5787C44.8962 31.6103 44.8554 31.6985 44.8053 31.7747C44.7216 31.9025 44.5666 32.291 44.2843 33.0802C44.2232 33.251 44.1145 33.5059 44.0427 33.6467C43.9708 33.7875 43.9121 33.9462 43.9121 33.9994C43.9121 34.0527 43.8468 34.2267 43.7671 34.3863C43.6874 34.5458 43.6026 34.7595 43.5787 34.8609C43.5548 34.9624 43.4411 35.2851 43.326 35.578C43.2108 35.8709 43.1062 36.203 43.0935 36.3161C43.0807 36.4291 43.013 36.6336 42.9428 36.7706C42.8726 36.9074 42.796 37.1288 42.7725 37.2626C42.7127 37.6027 42.5547 38.0855 42.49 38.1254C42.4603 38.1438 42.4359 38.223 42.4359 38.3015C42.4359 38.3799 42.3907 38.5513 42.3355 38.6823C42.2803 38.8133 42.1997 39.0726 42.1565 39.2587C42.0227 39.8351 41.9358 40.1432 41.853 40.3351C41.8091 40.4366 41.7258 40.6857 41.6677 40.8887C41.6096 41.0916 41.4928 41.4587 41.4082 41.7043C41.3162 41.9713 41.2694 42.211 41.2917 42.3002C41.3124 42.3824 41.3036 42.4654 41.2723 42.4848C41.2101 42.5231 40.9933 43.1427 40.8657 43.6464C40.7565 44.0777 40.6213 44.4296 40.5463 44.4777C40.5122 44.4996 40.4653 44.6721 40.4421 44.8609C40.4189 45.0497 40.2881 45.5203 40.1514 45.9065C40.0147 46.2928 39.8807 46.7749 39.8536 46.9779C39.8089 47.3124 39.528 48.4238 39.3717 48.8846C39.2556 49.2268 39.099 49.9267 39.0138 50.4838C38.9672 50.7882 38.886 51.2034 38.8333 51.4064C38.7806 51.6094 38.7383 51.9474 38.7392 52.1576C38.7401 52.3679 38.7142 52.5563 38.6817 52.5764C38.6491 52.5966 38.6225 52.7187 38.6225 52.8479C38.6225 52.9817 38.5827 53.1157 38.5302 53.1594C38.4795 53.2015 38.4379 53.3342 38.4379 53.4542C38.4379 53.7453 38.2848 53.9186 38.1102 53.8251C38.0147 53.774 37.9764 53.7752 37.9582 53.8297C37.9417 53.8793 37.9103 53.8829 37.8598 53.841C37.8095 53.7993 37.734 53.8063 37.6251 53.8628C37.4774 53.9394 37.453 53.9331 37.3195 53.7834C36.959 53.3787 36.9019 53.2407 36.8329 52.6068C36.7959 52.2663 36.7798 51.8569 36.797 51.697C36.964 50.1553 37.2427 48.7108 37.482 48.1465C37.5395 48.0112 37.6103 47.7759 37.6394 47.6237C37.7593 46.9982 37.8755 46.5623 37.9395 46.4984C37.9768 46.461 38.0074 46.3715 38.0074 46.2993C38.0074 46.1707 38.0827 45.9008 38.4443 44.7329C38.5438 44.4115 38.6551 44.0378 38.6914 43.9025C38.7278 43.7672 38.7824 43.6084 38.8129 43.5497C38.8435 43.491 38.8684 43.3941 38.8682 43.3344C38.868 43.2748 38.9085 43.1014 38.9581 42.9491C39.1488 42.364 39.3768 41.614 39.4537 41.3192C39.4978 41.1501 39.6028 40.8179 39.687 40.5811C39.7713 40.3443 39.8891 39.943 39.9489 39.6893C40.0087 39.4355 40.1499 38.9373 40.2627 38.5821C40.3755 38.2269 40.5072 37.7564 40.5554 37.5365C40.6798 36.9693 40.9818 35.9901 41.2099 35.4145C41.2368 35.3468 41.2902 35.1808 41.3286 35.0455C41.367 34.9101 41.4487 34.7026 41.5099 34.5842C41.5712 34.4658 41.6408 34.2582 41.6647 34.1229C41.7142 33.8419 41.9315 33.1692 42.0025 33.0772C42.0285 33.0434 42.0686 32.9374 42.0916 32.8415C42.1145 32.7458 42.2577 32.3904 42.4098 32.052C42.5619 31.7135 42.7569 31.2245 42.843 30.9652C42.9292 30.706 43.0501 30.3832 43.1116 30.2479C43.3583 29.7056 43.543 29.2189 43.543 29.1111C43.543 29.0485 43.5638 28.988 43.5892 28.9767C43.6761 28.9381 43.9121 28.4399 43.9121 28.2949C43.9121 28.2152 43.9951 28.0191 44.0966 27.859C44.1981 27.699 44.2811 27.5359 44.2811 27.4966C44.2811 27.4573 44.3459 27.3268 44.4251 27.2066C44.5042 27.0864 44.6165 26.9104 44.6746 26.8155C44.7328 26.7207 44.8272 26.6254 44.8844 26.6037Z" fill="#160042"/>
<path d="M30.5777 35.1993C30.6354 35.1993 30.7845 35.13 30.9091 35.0455C31.0337 34.9609 31.1665 34.8917 31.2041 34.8918C31.3121 34.8921 31.9957 35.2624 32.1529 35.4059C32.2701 35.5129 32.2883 35.5743 32.2553 35.752C32.2333 35.8708 32.1724 36.0158 32.1201 36.0741C32.0409 36.1624 32.0375 36.2105 32.0997 36.3607C32.1935 36.5872 32.1367 36.7033 31.7584 37.0585C31.6044 37.203 31.2142 37.5772 30.8912 37.8902C30.5682 38.2031 30.2866 38.4592 30.2653 38.4592C30.2185 38.4593 29.9883 38.6541 29.4582 39.1422C29.2385 39.3446 28.8072 39.6883 28.4999 39.9062C28.1925 40.1241 27.8921 40.3564 27.8324 40.4225C27.7079 40.56 27.7492 40.6734 27.9238 40.6734C27.9895 40.6734 28.0432 40.698 28.0432 40.7282C28.0432 40.7584 28.1055 40.7988 28.1816 40.818C28.2577 40.8372 28.4861 40.954 28.689 41.0776C28.892 41.2012 29.2933 41.4251 29.5809 41.5751C29.8684 41.7251 30.1452 41.8727 30.196 41.903C30.8327 42.2841 31.2482 42.5186 31.2867 42.5187C31.3294 42.5189 31.8421 42.8445 32.2226 43.1131C32.3055 43.1716 32.5011 43.2832 32.6574 43.3611C32.8137 43.4389 33.051 43.5963 33.1848 43.7109C33.3186 43.8254 33.6765 44.064 33.9802 44.2412C34.2838 44.4183 34.5599 44.5945 34.5937 44.6327C34.6276 44.6709 34.7521 44.75 34.8705 44.8084C35.4256 45.0825 36.0062 45.5058 36.0985 45.7036C36.1414 45.7955 36.201 45.9188 36.2309 45.9775C36.3412 46.1945 36.293 46.5105 36.1275 46.6554C35.8857 46.8669 35.5122 46.8855 34.6245 46.7306C34.347 46.6821 33.7947 46.4183 33.5085 46.1975C33.3852 46.1023 33.2573 46.0245 33.2241 46.0245C33.0977 46.0245 32.6128 45.7774 32.5045 45.6577C32.4421 45.5888 32.3608 45.5324 32.3238 45.5323C32.2868 45.5321 32.0904 45.4215 31.8874 45.2864C31.6844 45.1514 31.4852 45.0407 31.4446 45.0406C31.404 45.0405 31.3486 45.0043 31.3215 44.9602C31.2485 44.8411 30.7501 44.5223 30.2433 44.2704C29.9974 44.1482 29.6301 43.9544 29.4271 43.8396C29.2241 43.7249 29.0019 43.6052 28.9331 43.5735C28.381 43.3192 28.145 43.1994 27.7982 42.9971C27.5788 42.8692 27.3631 42.7646 27.3189 42.7646C27.2747 42.7646 27.0528 42.6801 26.8259 42.5768C26.599 42.4736 26.3441 42.3596 26.2595 42.3236C26.0527 42.2357 25.9596 42.1912 25.7059 42.0594C25.3124 41.8548 25.278 41.842 25.1225 41.842C25.0374 41.842 24.9678 41.8193 24.9678 41.7916C24.9678 41.7638 24.8718 41.629 24.7545 41.4919C24.4912 41.1843 24.3283 40.7309 24.3807 40.4515C24.4196 40.2445 24.7694 39.8123 24.8982 39.8123C24.9365 39.8123 24.9678 39.785 24.9678 39.7516C24.9678 39.7183 25.0918 39.6598 25.2432 39.6217C25.4191 39.5774 25.5691 39.4884 25.6584 39.3753C25.7353 39.278 25.8397 39.1981 25.8905 39.1977C25.9724 39.1972 26.2305 39.0024 26.5973 38.6643C26.7758 38.4997 27.1164 38.2746 27.1869 38.2746C27.2204 38.2746 27.3289 38.1916 27.4281 38.0901C27.5273 37.9886 27.6315 37.9055 27.6596 37.9055C27.7179 37.9055 27.9367 37.7486 28.1329 37.5661C28.2063 37.4978 28.3763 37.3549 28.5106 37.2485C28.6449 37.1421 28.7924 36.9848 28.8384 36.8989C28.8843 36.8131 29.0035 36.7144 29.103 36.6796C29.2027 36.645 29.2972 36.5666 29.3132 36.5056C29.3291 36.4446 29.4167 36.3614 29.5077 36.3209C29.5987 36.2803 29.7559 36.1151 29.857 35.9538C30.1031 35.5611 30.4486 35.1995 30.5777 35.1993Z" fill="#160042"/>
<path d="M47.0253 36.9217C47.1156 36.7853 47.2616 36.6335 47.3498 36.5844C47.5585 36.4681 48.5597 36.5091 48.7049 36.6399C48.7582 36.6879 48.8988 36.7364 49.0172 36.7475C49.1843 36.7632 49.2368 36.7979 49.2517 36.9027C49.2741 37.0603 49.9256 37.7402 50.1805 37.872C50.2767 37.9218 50.3695 37.9993 50.3868 38.0442C50.404 38.0893 50.6219 38.2609 50.871 38.4257C51.12 38.5906 51.5036 38.8666 51.7235 39.0392C51.9434 39.2118 52.234 39.4079 52.3693 39.475C52.5046 39.5421 52.7122 39.6692 52.8306 39.7575C52.949 39.8457 53.1468 39.9507 53.2702 39.9908C53.3936 40.0309 53.5737 40.1393 53.6704 40.2317C53.7671 40.3241 53.9559 40.4566 54.0899 40.5261C54.4658 40.7212 55.3373 41.4837 55.3831 41.6575C55.4053 41.7421 55.4698 41.8627 55.5264 41.9256C55.7253 42.1467 55.628 42.8168 55.3593 43.0758C55.1608 43.2671 54.4647 43.7487 54.3868 43.7487C54.3428 43.7487 54.2521 43.8034 54.1853 43.8702C54.1185 43.937 53.9871 44.0102 53.8932 44.0329C53.7993 44.0555 53.46 44.2708 53.1392 44.5111C52.8184 44.7515 52.4513 45.009 52.3234 45.0834C52.1956 45.1578 51.9875 45.3167 51.8611 45.4366C51.7347 45.5564 51.6153 45.6547 51.5959 45.6549C51.5307 45.6559 50.8636 46.1959 50.5383 46.511C50.3614 46.6823 50.1887 46.8229 50.1546 46.8234C50.1206 46.8237 50.0157 46.9515 49.9216 47.1073C49.8275 47.263 49.6963 47.4046 49.6299 47.422C49.5636 47.4393 49.5092 47.4732 49.5092 47.4973C49.5092 47.5214 49.2809 47.7799 49.0018 48.0718C48.5725 48.5209 48.4518 48.6121 48.2182 48.6635C47.9952 48.7127 47.9325 48.7072 47.8923 48.6354C47.8648 48.5863 47.7758 48.5463 47.6945 48.5463C47.6132 48.5463 47.4798 48.4841 47.398 48.4079C47.3163 48.3318 47.1795 48.2119 47.0942 48.1416C46.9877 48.0538 46.9166 47.9056 46.8675 47.6692C46.8039 47.3627 46.8094 47.2954 46.9182 47.059C46.9854 46.9129 47.0907 46.7497 47.1523 46.6964C47.2139 46.643 47.4029 46.4493 47.5723 46.2658C47.7418 46.0823 47.9575 45.8824 48.0518 45.8214C48.1461 45.7604 48.2511 45.6491 48.2852 45.5742C48.3194 45.4992 48.4404 45.3741 48.5542 45.2962C48.7347 45.1725 49.0558 44.8713 49.3973 44.5053C49.5169 44.3772 49.8396 44.1046 50.2781 43.7613C50.4472 43.6289 50.6383 43.4612 50.7028 43.3886C50.7673 43.316 50.8698 43.2567 50.9308 43.2567C50.9917 43.2567 51.1604 43.1463 51.3057 43.0114C51.4509 42.8765 51.5918 42.7658 51.6188 42.7654C51.6458 42.765 51.798 42.6338 51.9571 42.4739C52.1162 42.3141 52.3017 42.1534 52.3693 42.1169C52.5006 42.046 52.5043 41.8424 52.3756 41.7689C52.3348 41.7456 52.1644 41.6285 51.997 41.5087C51.8297 41.3889 51.5405 41.2163 51.3545 41.1251C50.943 40.9235 50.3576 40.5483 50.2904 40.4429C50.2633 40.4005 50.1756 40.3658 50.0952 40.3658C50.015 40.3658 49.871 40.3029 49.7754 40.2259C49.6797 40.149 49.5185 40.046 49.417 39.9971C49.0284 39.81 48.5501 39.4843 48.4131 39.3136C48.3344 39.2158 48.233 39.1357 48.1876 39.1357C48.067 39.1357 47.3189 38.3487 47.1968 38.0933C47.1394 37.9731 47.0688 37.8268 47.0399 37.768C47.0111 37.7093 46.9874 37.6036 46.9874 37.5333C46.9874 37.4629 46.959 37.3524 46.9243 37.2875C46.8748 37.1948 46.8964 37.1166 47.0253 36.9217Z" fill="#160042"/>
<path d="M41.2707 20.1233C41.6428 20.1043 42.058 20.0677 42.1933 20.042C42.3286 20.0164 42.5582 20.022 42.7033 20.0546C42.8823 20.0948 43.0608 20.0919 43.2569 20.0456C43.4171 20.0079 43.8075 19.99 44.1308 20.0057C44.4522 20.0212 45.1026 20.0405 45.5762 20.0485C46.0498 20.0566 46.465 20.08 46.4988 20.1006C46.5327 20.1213 46.9567 20.1412 47.4412 20.1448C47.9256 20.1485 48.3452 20.1659 48.3735 20.1834C48.4019 20.2009 48.6975 20.2308 49.0304 20.2498C49.3633 20.2688 49.7326 20.2964 49.851 20.3111C49.9694 20.3258 50.2877 20.3644 50.5583 20.397C50.8289 20.4295 51.1888 20.4984 51.3579 20.5502C51.527 20.6018 51.7287 20.6445 51.806 20.6448C51.8833 20.6452 52.0136 20.6894 52.0954 20.7431C52.1774 20.7968 52.2733 20.8228 52.3086 20.8009C52.3439 20.7791 52.4074 20.783 52.4497 20.8096C52.5869 20.896 53.1369 21.0672 53.1838 21.0382C53.2464 20.9996 54.1653 21.3123 54.2795 21.4112C54.3302 21.4551 54.479 21.5102 54.61 21.5338C54.8513 21.5771 54.8952 21.5938 55.2423 21.7746C55.349 21.8302 55.4777 21.8757 55.5283 21.8757C55.5789 21.8757 55.8514 21.9997 56.1339 22.1514C56.4164 22.3031 56.7202 22.4276 56.8092 22.4282C56.898 22.4287 57.0052 22.4707 57.0473 22.5215C57.0895 22.5722 57.1624 22.6137 57.2095 22.6137C57.2565 22.6137 57.3431 22.6397 57.4019 22.6714C57.5832 22.7694 58.2062 23.0443 58.2468 23.0443C58.268 23.0443 58.4289 23.1101 58.6043 23.1904C58.7797 23.2707 59.0617 23.3981 59.2308 23.4736C60.2924 23.9473 60.9373 24.3658 61.4936 24.942C61.7206 25.1772 61.9064 25.3981 61.9064 25.4329C61.9064 25.4678 61.9565 25.5122 62.0178 25.5317C62.122 25.5647 62.3369 25.9527 62.3369 26.1077C62.3369 26.1473 62.381 26.1604 62.4393 26.1381C62.5028 26.1136 62.5265 26.1233 62.5017 26.1635C62.4796 26.1991 62.5166 26.2981 62.5838 26.3835C62.651 26.469 62.706 26.6054 62.706 26.6867C62.706 26.768 62.7683 26.9014 62.8444 26.9831C62.9205 27.0648 62.9844 27.1462 62.9865 27.1639C62.9886 27.1815 63.0356 27.2998 63.091 27.4266C63.1464 27.5535 63.2359 27.8994 63.2899 28.1955C63.3439 28.4915 63.4184 28.8769 63.4555 29.0518C63.4926 29.2267 63.5063 29.4531 63.4859 29.5549C63.4656 29.6567 63.4742 29.7488 63.505 29.7597C63.536 29.7705 63.5727 30.1981 63.5867 30.7098C63.6006 31.2216 63.6255 31.6645 63.642 31.6939C63.6584 31.7235 63.6763 32.2987 63.6817 32.9722C63.6879 33.7591 63.7156 34.226 63.7591 34.2784C63.7996 34.3272 63.8084 34.4284 63.7811 34.53C63.7041 34.8164 63.688 35.4229 63.7554 35.5041C63.7904 35.5463 63.797 35.5944 63.77 35.6111C63.7429 35.6278 63.7423 36.2737 63.7685 37.0466C63.7947 37.8195 63.8129 38.4934 63.8089 38.5441C63.805 38.5949 63.7928 39.2868 63.7818 40.0818C63.7707 40.8768 63.7479 41.7348 63.7311 41.9885C63.7142 42.2423 63.6848 42.9772 63.6658 43.6217C63.6305 44.813 63.4941 46.1266 63.3923 46.2544C63.3428 46.3166 63.3227 46.5893 63.3125 47.3397C63.3091 47.5903 63.2997 48.4344 63.2941 48.9792C63.292 49.1929 63.2657 49.3425 63.2337 49.3227C63.2008 49.3023 63.1973 49.3369 63.2254 49.4055C63.2518 49.4702 63.289 49.5785 63.308 49.6462C63.3366 49.7483 63.3271 49.7567 63.2522 49.6954C63.1745 49.6317 63.1605 49.6911 63.1509 50.126C63.1447 50.4034 63.1252 50.9348 63.1076 51.3069C63.0541 52.4309 63.0555 52.5009 63.1324 52.5936C63.1866 52.6588 63.1888 52.7162 63.1408 52.8058C63.1046 52.8734 63.075 52.9939 63.075 53.0736C63.075 53.2808 62.8528 53.6881 62.6905 53.7783C62.6144 53.8205 62.3986 53.8561 62.2109 53.8573C62.0231 53.8585 61.8418 53.8872 61.8079 53.9211C61.663 54.066 60.805 53.3588 60.8005 53.0906C60.7994 53.0229 60.7467 52.8891 60.6834 52.793C60.6017 52.6692 60.5742 52.5352 60.5886 52.3317C60.5999 52.174 60.581 51.9393 60.5468 51.8101C60.5043 51.6493 60.5054 51.4749 60.5505 51.2566C60.5866 51.0813 60.6327 50.6887 60.6529 50.3843C60.6946 49.7583 60.6942 49.7776 60.6787 49.2772C60.6725 49.0742 60.6995 48.6313 60.7387 48.293C60.778 47.9547 60.8186 47.3735 60.829 47.0014C60.8525 46.1592 60.9113 45.5205 60.9876 45.277C61.0198 45.1744 61.0449 45.0221 61.0435 44.9387C61.0366 44.5537 61.105 42.2974 61.1478 41.4965C61.2042 40.4386 61.1962 36.1955 61.1342 34.2386C61.11 33.4775 61.0919 32.6065 61.094 32.3032C61.096 31.9999 61.081 31.7249 61.0607 31.692C61.0404 31.6591 61.0187 31.4091 61.0124 31.1364C60.9946 30.3637 60.8576 28.6858 60.8011 28.5492C60.7084 28.3252 60.6213 28.0604 60.5556 27.8025C60.3768 27.1017 59.4259 26.0263 58.8214 25.8415C58.7422 25.8173 58.5185 25.69 58.3243 25.5588C58.1302 25.4275 57.9431 25.3201 57.9084 25.3201C57.8739 25.3201 57.7283 25.2669 57.5848 25.202C57.4415 25.1371 57.2549 25.0646 57.1703 25.041C57.0858 25.0173 56.9718 24.9588 56.917 24.9108C56.8623 24.8629 56.5317 24.7255 56.1824 24.6055C55.8331 24.4855 55.4489 24.3358 55.3286 24.2728C54.8853 24.0406 54.2767 23.7788 54.0961 23.7427C53.994 23.7222 53.9105 23.6873 53.9105 23.6651C53.9105 23.6429 53.7789 23.5864 53.6183 23.5396C53.4576 23.4928 53.2708 23.4209 53.2031 23.3799C53.1355 23.3389 52.8311 23.2433 52.5268 23.1676C52.2225 23.0918 51.9042 23.003 51.8195 22.9702C51.7348 22.9375 51.5409 22.8876 51.3887 22.8594C51.2364 22.8312 50.9458 22.7624 50.7428 22.7066C49.3862 22.3334 45.2981 22.1422 43.0852 22.3483C42.527 22.4003 41.9619 22.4388 41.8293 22.4338C41.6967 22.4288 41.569 22.4559 41.5454 22.4941C41.502 22.5643 40.818 22.783 40.4618 22.8405C40.3183 22.8637 40.2343 22.8383 40.1389 22.7428C40.0679 22.6718 39.9831 22.6137 39.9505 22.6137C39.9179 22.6137 39.8615 22.5584 39.8253 22.4907C39.7891 22.4231 39.7055 22.3677 39.6396 22.3677C39.5737 22.3677 39.4327 22.29 39.3263 22.1949C39.1697 22.055 39.1271 21.9621 39.1026 21.7067C39.0758 21.4275 39.0985 21.3445 39.3003 20.9835C39.5432 20.5492 39.7719 20.3623 40.1328 20.303C40.2512 20.2835 40.4035 20.2429 40.4711 20.2127C40.5388 20.1825 40.8986 20.1423 41.2707 20.1233Z" fill="#160042"/>
<path d="M16.9056 29.5387C16.9469 29.5545 17.0901 29.5429 17.224 29.5128C17.7391 29.3973 18.2448 29.6151 18.4222 30.0287C18.4868 30.1794 18.5251 30.3406 18.5074 30.3868C18.4897 30.433 18.5201 30.488 18.5751 30.5091C18.6542 30.5395 18.6742 30.6338 18.6711 30.963C18.6689 31.1916 18.6684 31.4339 18.6699 31.5016C18.6714 31.5692 18.6571 34.5585 18.6381 38.1443C18.6062 44.162 18.5922 48.7042 18.6007 50.292C18.6026 50.6472 18.6504 51.2838 18.7068 51.7067C18.7632 52.1296 18.8123 52.6416 18.8159 52.8446C18.8196 53.0476 18.8408 53.2551 18.8631 53.3059C18.8854 53.3566 18.9355 53.6334 18.9746 53.921C19.0136 54.2085 19.0947 54.556 19.1549 54.6931C19.2151 54.8303 19.2835 55.0702 19.3068 55.2263C19.3303 55.3824 19.3892 55.5431 19.438 55.5836C19.4867 55.624 19.5097 55.6842 19.4892 55.7175C19.4687 55.7507 19.5072 55.8527 19.5748 55.9442C19.6425 56.0356 19.7719 56.2566 19.8624 56.4352C19.9602 56.6283 20.1019 56.8017 20.2117 56.8628C20.3133 56.9193 20.4848 57.0199 20.5926 57.0863C20.8106 57.2204 21.2464 57.3342 21.8959 57.4266C22.2888 57.4824 24.9121 57.6042 26.5705 57.6436C27.2218 57.6591 28.3115 57.726 28.631 57.7701C29.2922 57.8614 29.9568 57.9189 30.0291 57.8913C30.0769 57.8729 30.1724 57.888 30.2413 57.9249C30.3102 57.9617 30.6611 58.0044 31.021 58.0196C31.381 58.0347 31.7448 58.0726 31.8293 58.1036C31.9139 58.1346 32.0523 58.1578 32.1369 58.1551C32.2214 58.1525 32.8448 58.1695 33.5221 58.1929C34.5128 58.2272 34.8615 58.2166 35.3058 58.1389C36.0206 58.0139 36.5654 58.0097 36.5654 58.1292C36.5654 58.1772 36.6553 58.2725 36.7653 58.341C36.9658 58.4659 37.365 58.8587 37.365 58.9311C37.365 58.9524 37.3368 59.0032 37.3022 59.044C37.2677 59.0849 37.1276 59.2883 36.9909 59.4961C36.7866 59.8067 36.6868 59.897 36.4304 60.0035C36.2588 60.0748 36.0511 60.1332 35.9688 60.1332C35.8865 60.1332 35.7653 60.162 35.6994 60.1973C35.5186 60.2941 34.6987 60.3428 33.3978 60.3342C31.7605 60.3233 31.3484 60.2958 29.1538 60.0506C28.714 60.0014 28.0912 59.9541 27.7699 59.9454C27.4485 59.9367 27.061 59.9198 26.9088 59.9078C26.7565 59.8958 25.784 59.876 24.7475 59.8637C23.7111 59.8515 22.8343 59.8236 22.7991 59.8019C22.7639 59.7801 22.6155 59.7619 22.4693 59.7613C21.6599 59.7582 20.9445 59.7081 20.8293 59.6463C20.6418 59.546 19.9748 59.3465 19.6606 59.2968C19.5137 59.2736 19.3159 59.1893 19.2211 59.1095C19.1264 59.0298 19.0035 58.9646 18.948 58.9646C18.8562 58.9646 18.4823 58.6377 18.4823 58.5575C18.4823 58.5389 18.337 58.3728 18.1593 58.1883C17.9817 58.0039 17.7672 57.7345 17.6827 57.5895C17.5981 57.4446 17.4528 57.2109 17.3598 57.0701C17.2667 56.9294 17.1906 56.7757 17.1906 56.7286C17.1906 56.6108 16.9548 56.0873 16.8813 56.0418C16.8484 56.0215 16.8216 55.8728 16.8216 55.7113C16.8216 55.5498 16.8012 55.3972 16.7763 55.3724C16.7514 55.3475 16.727 55.2469 16.7221 55.1487C16.7172 55.0506 16.6938 54.921 16.6701 54.8608C16.6465 54.8006 16.6164 54.5852 16.6034 54.3823C16.5903 54.1793 16.5506 53.8195 16.5151 53.5827C16.4796 53.3459 16.4223 52.7785 16.3878 52.3218C16.3532 51.8651 16.2974 51.1454 16.2636 50.7226C16.1834 49.7187 16.1869 49.8716 16.1936 47.678C16.1967 46.6293 16.1978 45.2869 16.1959 44.6949C16.1939 44.1029 16.2084 43.5216 16.228 43.4032C16.2853 43.0572 16.333 41.6435 16.2889 41.5994C16.2243 41.5347 16.2448 40.7497 16.318 40.49C16.3951 40.2164 16.3564 37.6267 16.2666 37.0446C16.2265 36.7851 16.2316 36.646 16.2845 36.5525C16.3334 36.466 16.3504 36.205 16.335 35.7763C16.3223 35.4211 16.3109 35.0336 16.3095 34.9152C16.3066 34.6531 16.3929 32.4674 16.4296 31.8706C16.4442 31.6338 16.4651 31.1633 16.4759 30.825C16.5006 30.0553 16.6996 29.4596 16.9056 29.5387Z" fill="#160042"/>
</svg>
